<svg viewBox="0 0 72 68" xmlns="http://www.w3.org/2000/svg" xmlns:xlink="http://www.w3.org/1999/xlink"><svg height="36" width="36" viewBox="-4 -4 36 36" id="done_outline_blue_28" xmlns="http://www.w3.org/2000/svg"><g fill="none" fill-rule="evenodd"><path d="M0 0h28v28H0z" opacity=".1"/><path d="M11 18.586l-5.293-5.293a1 1 0 10-1.414 1.414l6 6a1 1 0 001.414 0l12-12a1 1 0 10-1.414-1.414z" fill="#528bcc"/></g></svg><svg height="36" width="36" viewBox="-4 -4 36 36" id="done_outline_white_28" x="36" xmlns="http://www.w3.org/2000/svg"><g fill="none" fill-rule="evenodd"><path d="M0 0h28v28H0z" opacity=".1"/><path d="M11 18.586l-5.293-5.293a1 1 0 10-1.414 1.414l6 6a1 1 0 001.414 0l12-12a1 1 0 10-1.414-1.414z" fill="#fff" fill-rule="nonzero"/></g></svg><svg width="32" height="32" viewBox="-4 -4 32 32" id="pause_24" y="36" xmlns="http://www.w3.org/2000/svg"><g fill="none" fill-rule="evenodd"><path d="M0 0h24v24H0z"/><path d="M8.712 5c.448 0 .61.047.774.134a.913.913 0 01.38.38c.087.164.134.326.134.774v11.424c0 .448-.047.61-.134.774a.913.913 0 01-.38.38c-.164.087-.326.134-.774.134H6.788c-.448 0-.61-.047-.774-.134a.913.913 0 01-.38-.38c-.087-.164-.134-.326-.134-.774V6.288c0-.448.047-.61.134-.774a.913.913 0 01.38-.38C6.178 5.047 6.34 5 6.788 5h1.924zm8 0c.448 0 .61.047.774.134a.913.913 0 01.38.38c.087.164.134.326.134.774v11.424c0 .448-.047.61-.134.774a.913.913 0 01-.38.38c-.164.087-.326.134-.774.134h-1.924c-.448 0-.61-.047-.774-.134a.913.913 0 01-.38-.38c-.087-.164-.134-.326-.134-.774V6.288c0-.448.047-.61.134-.774a.913.913 0 01.38-.38c.164-.087.326-.134.774-.134h1.924z" fill="#FFF" fill-rule="nonzero"/></g></svg><svg width="32" height="32" viewBox="-4 -4 32 32" id="play_24" x="32" y="36" xmlns="http://www.w3.org/2000/svg"><g fill="none" fill-rule="evenodd"><path d="M0 0h24v24H0z"/><path d="M8.133 5.105L18.63 11.35a.75.75 0 010 1.289L8.135 18.894A.75.75 0 017 18.25V5.75a.75.75 0 011.133-.645z" fill="#FFF" fill-rule="nonzero"/></g></svg></svg>