<svg viewBox="0 0 156 120" xmlns="http://www.w3.org/2000/svg" xmlns:xlink="http://www.w3.org/1999/xlink"><svg height="32" width="32" viewBox="-4 -4 32 32" id="back_24" y="56" xmlns="http://www.w3.org/2000/svg"><g fill="none" fill-rule="evenodd"><path d="M24 0H0v24h24z"/><path d="M7.8 11l4.9-4.9a.99.99 0 00-1.4-1.4l-6.593 6.593a1 1 0 000 1.414L11.3 19.3a.99.99 0 001.4-1.4L7.8 13H20a1 1 0 000-2z" fill="#528bcc"/></g></svg><svg width="56" height="56" viewBox="-4 -4 56 56" id="camera_outline_48" xmlns="http://www.w3.org/2000/svg"><g fill="none" fill-rule="evenodd"><path opacity=".4" d="M0 0h48v48H0z"/><path d="M28.328 5h-8.942c-1.613 0-2.767.49-3.778 1.592l-.177.201c-.03.037-1.024 1.274-1.377 1.711-.35.435-1.287.803-2.197.803H11.5c-4.41 0-7.5 3.417-7.5 8.391v14.908c0 4.498 3.82 8.391 8.714 8.391H35c4.924 0 9.004-3.933 9.004-8.39v-14.91c0-4.974-3.09-8.391-7.5-8.391h-.647c-.91 0-1.846-.368-2.197-.803l-1.377-1.71C31.23 5.548 30.036 5 28.328 5zm0 3c.765 0 1.127.14 1.557.608l.109.124 1.33 1.655c.977 1.21 2.78 1.92 4.533 1.92h.647c2.682 0 4.5 2.01 4.5 5.391v14.908c0 2.776-2.713 5.391-6.004 5.391H12.714C9.49 37.997 7 35.46 7 32.607v-14.91c0-3.381 1.818-5.391 4.5-5.391h.357c1.752 0 3.557-.71 4.532-1.92l1.331-1.655c.482-.569.837-.732 1.666-.732h8.942zM24 15.5a8.5 8.5 0 100 17 8.5 8.5 0 000-17zm0 3a5.5 5.5 0 110 11 5.5 5.5 0 010-11z" fill="#AEB7C2" fill-rule="nonzero"/></g></svg><svg height="32" width="32" viewBox="-4 -4 32 32" id="cancel_24" x="32" y="56" xmlns="http://www.w3.org/2000/svg"><g fill="none" fill-rule="evenodd"><path d="M0 0h24v24H0z" opacity=".1"/><path d="M18.3 5.7a.99.99 0 00-1.4 0L12 10.6 7.1 5.7a.99.99 0 00-1.4 1.4l4.9 4.9-4.9 4.9a.99.99 0 001.4 1.4l4.9-4.9 4.9 4.9a.99.99 0 001.4-1.4L13.4 12l4.9-4.9a.99.99 0 000-1.4z" fill="#528bcc" fill-rule="nonzero"/></g></svg><svg height="32" width="32" viewBox="-4 -4 32 32" id="cancel_outline_24" x="92" xmlns="http://www.w3.org/2000/svg"><g fill="none" fill-rule="evenodd"><path d="M0 0h24v24H0z" opacity=".1"/><path d="M18.3 5.7a.99.99 0 00-1.4 0L12 10.6 7.1 5.7a.99.99 0 00-1.4 1.4l4.9 4.9-4.9 4.9a.99.99 0 001.4 1.4l4.9-4.9 4.9 4.9a.99.99 0 001.4-1.4L13.4 12l4.9-4.9a.99.99 0 000-1.4z" fill="#818c99" fill-rule="nonzero"/></g></svg><svg height="32" width="32" viewBox="-4 -4 32 32" id="favorites_24" x="92" y="32" xmlns="http://www.w3.org/2000/svg"><linearGradient id="ea" x1="0%" y1="0%" y2="100%"><stop offset="0" stop-color="#ffb73d"/><stop offset="1" stop-color="#ffa000"/></linearGradient><g fill="none"><circle cx="12" cy="12" fill="url(#ea)" r="12"/><path d="M14.011 9.417l2.663.261c.926.091 1.21 1.017.495 1.625l-2.085 1.773.774 2.888c.255.948-.534 1.522-1.324.952l-2.533-1.83-2.533 1.83c-.786.568-1.578-.004-1.324-.952l.774-2.888-2.085-1.773c-.718-.61-.435-1.534.495-1.625l2.663-.261 1.173-2.767c.367-.867 1.308-.866 1.675 0z" fill="#fff"/></g></svg><svg width="24" height="24" viewBox="-4 -4 24 24" id="more_horizontal_16" x="124" y="64" xmlns="http://www.w3.org/2000/svg"><defs><path d="M13 6.5a1.5 1.5 0 110 3 1.5 1.5 0 010-3zm-5 0a1.5 1.5 0 110 3 1.5 1.5 0 010-3zm-5 0a1.5 1.5 0 110 3 1.5 1.5 0 010-3z" id="fa"/></defs><g fill="none" fill-rule="evenodd"><path d="M0 0h16v16H0z"/><use fill="#AAAEB3" fill-rule="nonzero" xlink:href="#fa"/></g></svg><svg viewBox="-4 -4 32 32" width="32" height="32" id="music_24" y="88" xmlns="http://www.w3.org/2000/svg"><g fill="none" fill-rule="evenodd"><path d="M0 0h24v24H0z"/><path d="M19 10.033v4.453c0 3.471-1.236 4.219-3.28 4.494-1.063.143-2.72-.414-2.72-2.432 0-.986.821-1.965 1.846-2.167.95-.187-.308.058 1.842-.352.346-.066.317-.313.317-.58l-.002-3.416H17l.005-2.576c0-.237-.073-.348-.345-.28l-7.295 1.33C9.06 8.582 9 8.708 9 9v7.486c0 3.471-1.236 4.219-3.28 4.494-1.063.143-2.72-.414-2.72-2.432 0-.986.821-1.965 1.846-2.167.95-.187-.308.058 1.842-.352.346-.066.317-.313.317-.58l-.002-4.363h.001L7 8.55s-.004-1.574 0-2.36c.005-.942.51-1.288 2-1.594l8-1.478s2-.625 2 1z" fill="#acb1b9"/></g></svg><svg height="32" width="32" viewBox="-4 -4 32 32" id="qr_24" x="32" y="88" xmlns="http://www.w3.org/2000/svg"><g fill="none" fill-rule="evenodd"><path d="M0 0h24v24H0z"/><path d="M19.5 19H21a.5.5 0 01.5.5V21a.5.5 0 01-.5.5h-1.5a.5.5 0 01-.5-.5v-1.5a.5.5 0 01.5-.5zM14 19h1.5a.5.5 0 01.5.5V21a.5.5 0 01-.5.5H14a.5.5 0 01-.5-.5v-1.5a.5.5 0 01.5-.5zm2.75-2.75h1.5a.5.5 0 01.5.5v1.5a.5.5 0 01-.5.5h-1.5a.5.5 0 01-.5-.5v-1.5a.5.5 0 01.5-.5zm2.75-2.75H21a.5.5 0 01.5.5v1.5a.5.5 0 01-.5.5h-1.5a.5.5 0 01-.5-.5V14a.5.5 0 01.5-.5zm-5.5 0h1.5a.5.5 0 01.5.5v1.5a.5.5 0 01-.5.5H14a.5.5 0 01-.5-.5V14a.5.5 0 01.5-.5zM4.5 13h4a2.5 2.5 0 012.5 2.5v4A2.5 2.5 0 018.5 22h-4A2.5 2.5 0 012 19.5v-4A2.5 2.5 0 014.5 13zm.25 1.75a1 1 0 00-1 1v3.5a1 1 0 001 1h3.5a1 1 0 001-1v-3.5a1 1 0 00-1-1zm1 1.5h1.5a.5.5 0 01.5.5v1.5a.5.5 0 01-.5.5h-1.5a.5.5 0 01-.5-.5v-1.5a.5.5 0 01.5-.5zM15.5 2h4A2.5 2.5 0 0122 4.5v4a2.5 2.5 0 01-2.5 2.5h-4A2.5 2.5 0 0113 8.5v-4A2.5 2.5 0 0115.5 2zm.25 1.75a1 1 0 00-1 1v3.5a1 1 0 001 1h3.5a1 1 0 001-1v-3.5a1 1 0 00-1-1zm1 1.5h1.5a.5.5 0 01.5.5v1.5a.5.5 0 01-.5.5h-1.5a.5.5 0 01-.5-.5v-1.5a.5.5 0 01.5-.5zM4.5 2h4A2.5 2.5 0 0111 4.5v4A2.5 2.5 0 018.5 11h-4A2.5 2.5 0 012 8.5v-4A2.5 2.5 0 014.5 2zm.25 1.75a1 1 0 00-1 1v3.5a1 1 0 001 1h3.5a1 1 0 001-1v-3.5a1 1 0 00-1-1zm1 1.5h1.5a.5.5 0 01.5.5v1.5a.5.5 0 01-.5.5h-1.5a.5.5 0 01-.5-.5v-1.5a.5.5 0 01.5-.5z" fill="#aaaeb3"/></g></svg><svg height="36" width="36" viewBox="-4 -4 36 36" id="send_28" x="56" xmlns="http://www.w3.org/2000/svg"><g fill="none" fill-rule="evenodd"><path d="M0 0h28v28H0z"/><path d="M6.934 18.123c-.763 2.044-1.242 3.48-1.438 4.307-.615 2.599-1.062 3.184 1.23 1.949 2.29-1.235 13.384-7.352 15.86-8.711 3.226-1.772 3.269-1.634-.174-3.516-2.622-1.433-13.585-7.39-15.687-8.56-2.101-1.17-1.844-.65-1.23 1.949.2.838.686 2.287 1.46 4.346a4.4 4.4 0 003.29 2.772l6.432 1.233a.11.11 0 010 .216L10.23 15.34a4.4 4.4 0 00-3.296 2.783z" fill="#aaaeb3" fill-rule="nonzero"/></g></svg><svg height="32" width="32" viewBox="-4 -4 32 32" id="send_active_24" x="64" y="88" xmlns="http://www.w3.org/2000/svg"><g fill="none" fill-rule="evenodd"><path d="M0 0h24v24H0z"/><path d="M5.739 15.754c-.686 1.855-1.117 3.158-1.293 3.91-.553 2.362-.956 2.894 1.107 1.771 2.062-1.122 12.046-6.683 14.274-7.919 2.904-1.611 2.942-1.485-.156-3.196-2.36-1.302-12.227-6.718-14.118-7.782-1.892-1.063-1.66-.59-1.107 1.772.178.761.616 2.076 1.311 3.944a4 4 0 002.988 2.531l5.765 1.117a.1.1 0 010 .196l-5.778 1.116a4 4 0 00-2.993 2.54z" fill="#528bcc" fill-rule="nonzero"/></g></svg><svg height="32" width="32" viewBox="-4 -4 32 32" id="snackbar_done_24" x="124" xmlns="http://www.w3.org/2000/svg"><g fill="none" fill-rule="evenodd"><circle cx="12" cy="12" fill="#528bcc" r="12"/><path d="M7.429 12.571l2.857 2.858 6.571-6.572" stroke="#fff" stroke-linecap="round" stroke-linejoin="round" stroke-width="2"/></g></svg><svg height="32" width="32" viewBox="-4 -4 32 32" id="snackbar_error_24" x="124" y="32" xmlns="http://www.w3.org/2000/svg"><g fill="none" fill-rule="evenodd"><circle cx="12" cy="12" r="11" stroke="#eb4250" stroke-width="2"/><path d="M4 4h16v16H4z" opacity=".4"/><path d="M12 16a1.333 1.333 0 110 2.667A1.333 1.333 0 0112 16zm.324-10.667a1 1 0 011 1.037l-.266 7.276a1.059 1.059 0 01-2.116 0l-.265-7.276a1 1 0 01.963-1.036h.684z" fill="#eb4250" fill-rule="nonzero"/></g></svg></svg>