<svg height="80" viewBox="0 0 61 80" width="61" xmlns="http://www.w3.org/2000/svg"><g fill="none" fill-rule="evenodd"><rect fill="#e6ebf0" height="80" rx="4" width="61"/><g opacity=".7" transform="translate(19 28)"><path d="m0 0h24v24h-24z"/><path d="m8 6v7c0 .5522847-.44771525 1-1 1s-1-.4477153-1-1v-7h-2c-.55228475 0-1-.44771525-1-1 0-.55228475.44771525-1 1-1h6c.5522847 0 1 .44771525 1 1 0 .55228475-.4477153 1-1 1zm4 6h8c.5522847 0 1 .4477153 1 1s-.4477153 1-1 1h-8c-.5522847 0-1-.4477153-1-1s.4477153-1 1-1zm2-5h6c.5522847 0 1 .44771525 1 1s-.4477153 1-1 1h-6c-.5522847 0-1-.44771525-1-1s.4477153-1 1-1zm-8 10h14c.5522847 0 1 .4477153 1 1s-.4477153 1-1 1h-14c-.55228475 0-1-.4477153-1-1s.44771525-1 1-1z" fill="#828a99"/></g></g></svg>