<svg viewBox="0 0 128 128" xmlns="http://www.w3.org/2000/svg" xmlns:xlink="http://www.w3.org/1999/xlink"><svg height="32" width="32" viewBox="-4 -4 32 32" id="article_24" xmlns="http://www.w3.org/2000/svg"><g fill="none" fill-rule="evenodd"><path d="M0 0h24v24H0z"/><path d="M20 11a1 1 0 011 1v.5a1 1 0 01-1 1H4a1 1 0 01-1-1V12a1 1 0 011-1zm0-5.5a1 1 0 011 1V7a1 1 0 01-1 1H4a1 1 0 01-1-1v-.5a1 1 0 011-1zM4 19a1 1 0 01-1-1v-.5a1 1 0 011-1h9a1 1 0 011 1v.5a1 1 0 01-1 1z" fill="#a8b8c8" fill-rule="nonzero"/></g></svg><svg height="32" width="32" viewBox="-4 -4 32 32" id="artist_24" x="32" xmlns="http://www.w3.org/2000/svg"><g fill="none" fill-rule="evenodd"><path d="M0 0h24v24H0z" opacity=".1"/><path d="M13.011 14.506l-6.098 5.082a1.776 1.776 0 01-2.501-2.5l5.082-6.099a6.522 6.522 0 003.517 3.517zM15.5 13a4.5 4.5 0 110-9 4.5 4.5 0 010 9z" fill="#a8b8c8" fill-rule="nonzero"/></g></svg><svg height="32" width="32" viewBox="-4 -4 32 32" id="discussions_24" y="32" xmlns="http://www.w3.org/2000/svg"><g fill="none" fill-rule="evenodd"><path d="M0 0h24v24H0z"/><path d="M19 7v5.985A3.015 3.015 0 0115.985 16H7v1.492C7 18.325 7.675 19 8.508 19H18l3.142 3.142a.503.503 0 00.858-.355V8.507C22 7.676 21.325 7 20.492 7zm-4.01-4H3.508C2.675 3 2 3.675 2 4.508v12.279a.502.502 0 00.858.355L6 14h9.492c.833 0 1.508-.675 1.508-1.508V5.01C17 3.9 16.1 3 14.99 3z" fill="#a8b8c8" fill-rule="nonzero"/></g></svg><svg height="32" width="32" viewBox="-4 -4 32 32" id="document_24" x="32" y="32" xmlns="http://www.w3.org/2000/svg"><g fill="none" fill-rule="evenodd"><path d="M0 0h24v24H0z" opacity=".4"/><path d="M4 5v13a3 3 0 003 3l11 .002A3 3 0 0021 18l-.01-9.172a2 2 0 00-.585-1.413l-4.83-4.83A2 2 0 0014.163 2H7a3 3 0 00-3 3zm10.012-.988l3.976 3.976a.3.3 0 01-.212.512H14a.5.5 0 01-.5-.5V4.224a.3.3 0 01.512-.212z" fill="#a8b8c8" fill-rule="nonzero"/></g></svg><svg height="32" width="32" viewBox="-4 -4 32 32" id="gallery_24" x="64" xmlns="http://www.w3.org/2000/svg"><g fill="none" fill-rule="evenodd"><path d="M0 0h24v24H0z" opacity=".4"/><path d="M6 3h12a3 3 0 013 3v12a3 3 0 01-3 3H6a3 3 0 01-3-3V6a3 3 0 013-3zm5 13.51l-2.202-2.651a.375.375 0 00-.584.01L5.47 17.394a.375.375 0 00.296.605H18.25a.375.375 0 00.3-.6l-3.755-5.007a.375.375 0 00-.596-.005z" fill="#a8b8c8" fill-rule="nonzero"/></g></svg><svg height="32" width="32" viewBox="-4 -4 32 32" id="link_24" x="64" y="32" xmlns="http://www.w3.org/2000/svg"><g fill="none" fill-rule="evenodd"><path d="M0 0h24v24H0z" opacity=".1"/><path d="M16.544 9.193L7.096 18.64a1.228 1.228 0 01-1.736-1.736l9.447-9.448H8.93A1.228 1.228 0 118.93 5h8.842C18.45 5 19 5.55 19 6.228v8.842a1.228 1.228 0 11-2.456 0z" fill="#a8b8c8" fill-rule="nonzero"/></g></svg><svg height="32" width="32" viewBox="-4 -4 32 32" id="market_24" y="64" xmlns="http://www.w3.org/2000/svg"><g fill="none" fill-rule="evenodd"><path d="M0 0h24v24H0z" opacity=".1"/><path d="M16 8h2.074a1 1 0 01.997.923l.763 9.924A2 2 0 0117.84 21H6.16a2 2 0 01-1.994-2.153l.763-9.924A1 1 0 015.926 8H8V7a4 4 0 118 0zM9.8 8h4.4V7a2.2 2.2 0 00-4.4 0z" fill="#a8b8c8" fill-rule="nonzero"/></g></svg><svg height="32" width="32" viewBox="-4 -4 32 32" id="newsfeed_24" x="32" y="64" xmlns="http://www.w3.org/2000/svg"><g fill="none" fill-rule="evenodd"><path d="M0 0h24v24H0z" opacity=".1"/><path d="M7 2h10a4 4 0 014 4v12a4 4 0 01-4 4H7a4 4 0 01-4-4V6a4 4 0 014-4zm0 2a2 2 0 00-2 2v12a2 2 0 002 2h10a2 2 0 002-2V6a2 2 0 00-2-2zm1 2h4a1 1 0 010 2H8a1 1 0 110-2zm0 4h8a1 1 0 011 1v6a1 1 0 01-1 1H8a1 1 0 01-1-1v-6a1 1 0 011-1z" fill="#a8b8c8" fill-rule="nonzero"/></g></svg><svg height="32" width="32" viewBox="-4 -4 32 32" id="place_24" x="64" y="64" xmlns="http://www.w3.org/2000/svg"><g fill="none" fill-rule="evenodd"><path d="M0 0h24v24H0z" opacity=".4"/><path d="M5 9.5c0 2.73 1.932 6.7 5.795 11.914a1.5 1.5 0 002.41 0C17.068 16.201 19 12.23 19 9.5c0-3.87-3.13-7-7-7s-7 3.13-7 7zm4.5 0a2.5 2.5 0 015 0 2.5 2.5 0 01-5 0z" fill="#a8b8c8" fill-rule="nonzero"/></g></svg><svg height="32" width="32" viewBox="-4 -4 32 32" id="playlist_24" x="96" xmlns="http://www.w3.org/2000/svg"><g fill="none" fill-rule="evenodd"><path d="M0 0h24v24H0z"/><path d="M13 6.883A.88.88 0 0012.118 6H2.882A.888.888 0 002 6.883v.234A.88.88 0 002.882 8h9.236A.888.888 0 0013 7.117zm0 4a.88.88 0 00-.882-.883H2.882a.888.888 0 00-.882.883v.234a.88.88 0 00.882.883h9.236a.888.888 0 00.882-.883zM2 15.117v-.234A.89.89 0 012.885 14h4.227c.492 0 .885.395.885.883v.234a.89.89 0 01-.885.883H2.885A.882.882 0 012 15.117zm15.004.694c0 3.752-.993 4.654-3.776 5.142-1.48.259-3.223-.479-3.223-2.81 0-1.14.712-2.221 2.187-2.504 1.127-.216-.42.052 2.128-.42.618-.116.689-.337.689-.809 0-.236-.006-.428-.013-1.85V8.724s-.005-1.83 0-2.745c.006-1.094.833-1.496 2.596-1.852 0 0 2.35-.339 3.827-.607.327-.06.576.062.576.437V7.4c0 .37-.15.537-.524.603a228.49 228.49 0 01-3.986.649c-.333.081-.485.315-.485.652l.004 6.508z" fill="#a8b8c8" fill-rule="nonzero"/></g></svg><svg height="32" width="32" viewBox="-4 -4 32 32" id="services_24" x="96" y="32" xmlns="http://www.w3.org/2000/svg"><g fill="none" fill-rule="evenodd"><path d="M0 0h24v24H0z"/><path d="M14.5 21h5a1.5 1.5 0 001.5-1.5v-5a1.5 1.5 0 00-1.5-1.5h-5a1.5 1.5 0 00-1.5 1.5v5a1.5 1.5 0 001.5 1.5zM11 19.5v-5A1.5 1.5 0 009.5 13h-5A1.5 1.5 0 003 14.5v5A1.5 1.5 0 004.5 21h5a1.5 1.5 0 001.5-1.5zM4.5 11h5A1.5 1.5 0 0011 9.5v-5A1.5 1.5 0 009.5 3h-5A1.5 1.5 0 003 4.5v5A1.5 1.5 0 004.5 11zm7.56-2.6l3.54 3.54a1.5 1.5 0 002.12 0l3.54-3.538a1.5 1.5 0 000-2.123l-3.54-3.531a1.5 1.5 0 00-2.12 0l-3.54 3.531a1.5 1.5 0 000 2.123z" fill="#a8b8c8" fill-rule="nonzero"/></g></svg><svg height="32" width="32" viewBox="-4 -4 32 32" id="user_24" x="96" y="64" xmlns="http://www.w3.org/2000/svg"><g fill="none" fill-rule="evenodd"><path d="M0 0h24v24H0z" opacity=".1"/><path d="M16 8c0-2.21-1.79-4-4-4S8 5.79 8 8s1.79 4 4 4 4-1.79 4-4zM4 18v.995C4 19.55 4.45 20 5.005 20h13.99C19.55 20 20 19.55 20 18.995V18c0-3.5-5.33-4.5-8-4.5s-8 1-8 4.5z" fill="#a8b8c8" fill-rule="nonzero"/></g></svg><svg width="32" height="32" viewBox="-4 -4 32 32" id="users_24" y="96" xmlns="http://www.w3.org/2000/svg"><g fill="none" fill-rule="evenodd"><path d="M0 0h24v24H0z"/><path d="M14.829 12.724A11.034 11.034 0 0117 12.5c2.294 0 6.5.857 6.5 4.286 0 1.5-.382 1.714-1.147 1.714h-6.09c.158-.489.237-1.062.237-1.714 0-1.723-.631-3.067-1.671-4.062zM1.5 16.786C1.5 13.357 5.706 12.5 8 12.5c2.294 0 6.5.857 6.5 4.286 0 1.5-.382 1.714-1.147 1.714H2.647c-.765 0-1.147-.214-1.147-1.714zM11 8a3 3 0 11-6 0 3 3 0 116 0zm9 0a3 3 0 11-6 0 3 3 0 116 0z" fill="#A8B8C8" fill-rule="nonzero"/></g></svg><svg width="32" height="32" viewBox="-4 -4 32 32" id="video_24" x="32" y="96" xmlns="http://www.w3.org/2000/svg"><g fill="none" fill-rule="evenodd"><path opacity=".4" d="M0 0h24v24H0z"/><path d="M6 3h11a3 3 0 013 3v12.5a3 3 0 01-3 3H6a3 3 0 01-3-3V6a3 3 0 013-3zm.75 3a.75.75 0 00-.75.75v1c0 .414.336.75.75.75h1a.75.75 0 00.75-.75v-1A.75.75 0 007.75 6h-1zm8.5 0a.75.75 0 00-.75.75v1c0 .414.336.75.75.75h1a.75.75 0 00.75-.75v-1a.75.75 0 00-.75-.75h-1zm-8.5 10a.75.75 0 00-.75.75v1c0 .414.336.75.75.75h1a.75.75 0 00.75-.75v-1a.75.75 0 00-.75-.75h-1zm8.5 0a.75.75 0 00-.75.75v1c0 .414.336.75.75.75h1a.75.75 0 00.75-.75v-1a.75.75 0 00-.75-.75h-1zm-8.5-5a.75.75 0 00-.75.75v1c0 .414.336.75.75.75h1a.75.75 0 00.75-.75v-1a.75.75 0 00-.75-.75h-1zm8.5 0a.75.75 0 00-.75.75v1c0 .414.336.75.75.75h1a.75.75 0 00.75-.75v-1a.75.75 0 00-.75-.75h-1z" fill="#A8B8C8" fill-rule="nonzero"/></g></svg></svg>