<svg viewBox="0 0 120 84" xmlns="http://www.w3.org/2000/svg" xmlns:xlink="http://www.w3.org/1999/xlink"><svg width="28" height="28" viewBox="-4 -4 28 28" id="articles_20" y="56" xmlns="http://www.w3.org/2000/svg"><g fill="none" fill-rule="evenodd"><path d="M0 0h20v20H0z"/><g fill="#99a2ad"><path d="M18.5 6.25a.75.75 0 00-.75-.75h-5.5a.75.75 0 000 1.5h5.5c.41 0 .75-.33.75-.75zm0 5a.75.75 0 00-.75-.75h-8.5a.75.75 0 100 1.5h8.5c.41 0 .75-.33.75-.75zm-14 5c0 .41.33.75.75.75h12.5a.75.75 0 100-1.5H5.25a.75.75 0 00-.75.75zM5.5 3c.41 0 .75.34.75.75v6.5a.75.75 0 11-1.5 0v-6.5c0-.41.34-.75.75-.75z"/><path d="M1.5 3.75c0 .41.34.75.75.75h6.5a.75.75 0 100-1.5h-6.5a.75.75 0 00-.75.75z"/></g></g></svg><svg width="28" height="28" viewBox="-4 -4 28 28" id="comments_20" x="28" y="56" xmlns="http://www.w3.org/2000/svg"><g fill="none" fill-rule="evenodd"><path d="M0 0h20v20H0z" opacity=".4"/><path fill="#99a2ad" fill-rule="nonzero" d="M6.98 18c-.4-.29-.61-.8-.61-1.27V15H5.06a2.7 2.7 0 01-2.81-2.82V5.57a2.7 2.7 0 012.8-2.82h9.9a2.7 2.7 0 012.8 2.82v6.61a2.7 2.7 0 01-2.8 2.82h-3.02l-3.06 2.7c-.61.6-1.32.73-1.9.3zm4.05-4.2c.22-.2.5-.3.77-.3h3.14c.82 0 1.31-.49 1.31-1.32V5.57c0-.83-.49-1.32-1.3-1.32h-9.9c-.81 0-1.3.5-1.3 1.32v6.61c0 .83.49 1.32 1.3 1.32h2.07c.58.17.58.17.75.75v2.32z"/></g></svg><svg width="28" height="28" viewBox="-4 -4 28 28" id="donaters_20" x="56" y="56" xmlns="http://www.w3.org/2000/svg"><g fill="none" fill-rule="evenodd"><path d="M0 0h20v20H0z" opacity=".4"/><path fill="#99a2ad" d="M4.5 17a1.5 1.5 0 110-3 1.5 1.5 0 010 3zm7-.75a.75.75 0 11-1.5 0A6.15 6.15 0 003.75 10a.75.75 0 010-1.5 7.64 7.64 0 017.75 7.75zm5 0a.75.75 0 11-1.5 0A11.1 11.1 0 003.75 5a.75.75 0 010-1.5A12.6 12.6 0 0116.5 16.25z"/></g></svg><svg width="20" height="20" viewBox="-4 -4 20 20" id="donut_12" x="92" y="56" xmlns="http://www.w3.org/2000/svg"><g fill="none" fill-rule="evenodd"><circle cx="6" cy="6" r="6" fill="#FFA000"/><path fill="#FFF" d="M6 8.25l-1.9 1a.25.25 0 01-.37-.26l.37-2.12-1.54-1.5a.25.25 0 01.14-.43l2.12-.3.96-1.94a.25.25 0 01.44 0l.96 1.93 2.12.31a.25.25 0 01.14.43L7.9 6.87l.37 2.12a.25.25 0 01-.37.26l-1.9-1z"/></g></svg><svg width="56" height="56" viewBox="-4 -4 56 56" id="donut_outline_48" xmlns="http://www.w3.org/2000/svg"><g fill="none" fill-rule="evenodd" stroke="#a3adb8" stroke-width="2"><rect width="46" height="46" x="1" y="1" rx="23"/><path d="M23.12 31.93l-4.7 2.87a1.68 1.68 0 01-2.51-1.82l1.28-5.37a1.68 1.68 0 00-.54-1.66l-4.63-3.96a1.44 1.44 0 01.82-2.53l6.07-.49a1.68 1.68 0 001.42-1.03l2.12-5.1a1.68 1.68 0 013.1 0l2.12 5.1c.24.58.79.98 1.42 1.03l5.5.44a1.68 1.68 0 01.95 2.95l-4.19 3.59a1.68 1.68 0 00-.54 1.66l1.28 5.37a1.68 1.68 0 01-2.5 1.82l-4.71-2.87a1.68 1.68 0 00-1.76 0z"/></g></svg><svg width="36" height="36" viewBox="-4 -4 36 36" id="help_28" x="56" xmlns="http://www.w3.org/2000/svg"><g fill="none" fill-rule="evenodd"><path d="M0 0h28v28H0z"/><path fill="#99a2ad" fill-rule="nonzero" d="M3 14a11 11 0 1122 0 11 11 0 01-22 0zm1.8 0a9.2 9.2 0 1018.4 0 9.2 9.2 0 00-18.4 0zm8.1 5.65v-.3c0-.52.43-.95.95-.95h.3c.52 0 .95.43.95.95v.3c0 .52-.43.95-.95.95h-.3a.95.95 0 01-.95-.95zm2.97-5.45c-.48.5-.82.92-.97 1.66a2.2 2.2 0 00-.02.3.9.9 0 01-1.79-.05c0-.25 0-.42.02-.5.14-.71.49-1.36.98-1.86l1.1-1.13a1.8 1.8 0 00-1.26-3.07c-.62 0-1.17.33-1.49.82-.06.1-.14.25-.23.47a.9.9 0 01-1.1.47h-.04a.85.85 0 01-.51-1.13l.18-.42a3.47 3.47 0 013.2-2.01 3.58 3.58 0 013.56 3.6c0 .8-.32 1.51-.83 2.03z"/></g></svg><svg width="28" height="28" viewBox="-4 -4 28 28" id="podcasts_20" x="92" xmlns="http://www.w3.org/2000/svg"><g fill="none" fill-rule="evenodd"><path d="M0 0h20v20H0z" opacity=".4"/><g fill-rule="nonzero"><path stroke="#99a2ad" stroke-width="1.5" d="M10 5.75A3.25 3.25 0 006.75 9v3a3.25 3.25 0 006.5 0V9A3.25 3.25 0 0010 5.75z"/><g fill="#99a2ad"><path d="M4.5 9.143H3.001a7 7 0 1113.997 0H15.5V9a5.5 5.5 0 00-11 0z"/><path d="M3.5 8A1.5 1.5 0 015 9.5v3a1.5 1.5 0 01-3 0v-3A1.5 1.5 0 013.5 8zm13 0A1.5 1.5 0 0118 9.5v3a1.5 1.5 0 01-3 0v-3A1.5 1.5 0 0116.5 8zm-6.05 4h2.247a.45.45 0 01.336.75l-.338.38c-.135.152-.188.2-.255.246-.067.045-.136.076-.215.096s-.15.028-.353.028H10.45a.75.75 0 110-1.5zm0-3h2.5a.75.75 0 110 1.5h-2.5a.75.75 0 010-1.5zM10 15a.75.75 0 01.75.75v1.5a.75.75 0 11-1.5 0v-1.5A.75.75 0 0110 15z"/></g></g></g></svg><svg width="28" height="28" viewBox="-4 -4 28 28" id="posts_20" x="92" y="28" xmlns="http://www.w3.org/2000/svg"><g fill="none"><path d="M0 0h20v20H0z" opacity=".53"/><path stroke="#99a2ad" stroke-width="1.5" d="M6.92 2.75h6.16c1.45 0 1.98.15 2.5.43a3 3 0 011.24 1.23c.28.53.43 1.06.43 2.5v6.17c0 1.45-.15 1.98-.43 2.5a3 3 0 01-1.23 1.24c-.53.28-1.06.43-2.5.43H6.91c-1.45 0-1.98-.15-2.5-.43a3 3 0 01-1.24-1.23c-.28-.53-.43-1.06-.43-2.5V6.91c0-1.45.15-1.98.43-2.5A3 3 0 014.4 3.17c.53-.28 1.06-.43 2.5-.43z"/><path fill="#99a2ad" d="M6.75 6h5.5a.75.75 0 110 1.5h-5.5a.75.75 0 010-1.5zm0 3.25h6.5a.75.75 0 110 1.5h-6.5a.75.75 0 010-1.5zm0 3.25h4.5a.75.75 0 110 1.5h-4.5a.75.75 0 110-1.5z"/></g></svg></svg>