<svg viewBox="0 0 96 64" xmlns="http://www.w3.org/2000/svg" xmlns:xlink="http://www.w3.org/1999/xlink"><svg height="18" width="18" viewBox="-4 -4 18 18" id="ad_tag_10" x="72" y="24" xmlns="http://www.w3.org/2000/svg"><g fill="none"><path d="M0 0h10v10H0z"/><path d="M8.25 1a.75.75 0 01.743.648L9 1.75v5a.75.75 0 01-1.493.102L7.5 6.75V3.56L2.28 8.78a.75.75 0 01-1.133-.976l.073-.084L6.438 2.5H3.25a.75.75 0 01-.743-.648L2.5 1.75a.75.75 0 01.648-.743L3.25 1z" fill="#397ecc"/></g></svg><svg height="24" width="24" viewBox="-4 -4 24 24" id="cancel_16" x="28" y="36" xmlns="http://www.w3.org/2000/svg"><g fill="none" fill-rule="evenodd"><path d="M0 0h16v16H0z"/><path d="M12.736 3.264a.9.9 0 010 1.272L9.273 8l3.463 3.464a.9.9 0 01.08 1.18l-.08.092a.9.9 0 01-1.272 0L8 9.273l-3.464 3.463a.9.9 0 11-1.272-1.272L6.727 8 3.264 4.536a.9.9 0 01-.08-1.18l.08-.092a.9.9 0 011.272 0L8 6.727l3.464-3.463a.9.9 0 011.272 0z" fill="#aaaeb3" fill-rule="nonzero"/></g></svg><svg width="24" height="24" viewBox="-4 -4 24 24" id="casper_16" x="72" xmlns="http://www.w3.org/2000/svg"><path d="M8 2c1.647 0 2.948.567 4.149 1.666C13.332 4.748 14 6.224 14 7.767l-.01 5.04c-.067.901-.687 1.568-1.588 1.568-.9 0-1.14-.625-1.91-.498C9.722 14.005 9.432 15 8 15s-1.75-1-2.492-1.123c-.77-.127-1.01.498-1.91.498-.868 0-1.543-.627-1.588-1.567L2 7.768c0-1.544.668-3.02 1.851-4.102C5.002 2.613 6.353 2 8 2zm2.317 8.22a.753.753 0 00-1.01-.05c-.738.617-1.474.617-2.224.241a2.217 2.217 0 01-.39-.24l-.071-.053a.754.754 0 00-.939.102.63.63 0 00.053.936c.139.116.365.27.668.423 1.234.618 2.614.618 3.86-.423a.63.63 0 00.053-.936zM5.5 6.5a1 1 0 100 2 1 1 0 000-2zm4.217.612a1.712 1.712 0 00-.326.215.545.545 0 00-.043.788.593.593 0 00.76.085l.056-.043a.666.666 0 01.102-.063c.185-.097.34-.107.512.017l.058.046a.592.592 0 00.816-.042.545.545 0 00-.043-.788c-.607-.527-1.295-.527-1.892-.215z" fill="#3F8AE0"/></svg><svg width="36" height="36" viewBox="-4 -4 36 36" id="keyboard_bots_outline_28" xmlns="http://www.w3.org/2000/svg"><g fill="none" fill-rule="evenodd"><path d="M0 0h28v28H0z"/><path d="M16.308 3c2.59 0 3.818.237 5.094.92a6.452 6.452 0 012.678 2.678c.683 1.276.92 2.504.92 5.094v4.616c0 2.59-.237 3.818-.92 5.094a6.452 6.452 0 01-2.678 2.678c-1.276.683-2.504.92-5.094.92h-4.616c-2.59 0-3.818-.237-5.094-.92a6.452 6.452 0 01-2.678-2.678C3.237 20.126 3 18.898 3 16.308v-4.616c0-2.59.237-3.818.92-5.094A6.452 6.452 0 016.598 3.92C7.874 3.237 9.102 3 11.692 3h4.616zm0 2h-4.616c-2.288 0-3.204.177-4.15.683a4.452 4.452 0 00-1.859 1.858C5.177 8.488 5 9.404 5 11.691v4.617c0 2.288.177 3.204.683 4.15a4.452 4.452 0 001.858 1.859c.947.506 1.863.683 4.15.683h4.617c2.288 0 3.204-.177 4.15-.683a4.452 4.452 0 001.859-1.858c.506-.947.683-1.863.683-4.15v-4.617c0-2.288-.177-3.204-.683-4.15a4.452 4.452 0 00-1.858-1.859C19.512 5.177 18.596 5 16.309 5zM11 15a2 2 0 110 4 2 2 0 010-4zm6 0a2 2 0 110 4 2 2 0 010-4zm-6-6a2 2 0 110 4 2 2 0 010-4zm6 0a2 2 0 110 4 2 2 0 010-4z" fill="#3F8AE0" fill-rule="nonzero"/></g></svg><svg height="28" width="28" viewBox="-4 -4 28 28" id="pin_outline_20" y="36" xmlns="http://www.w3.org/2000/svg"><g fill="none" fill-rule="evenodd"><path d="M0 0h20v20H0z"/><path d="M7.485 13.65l-3.712 3.712a.75.75 0 01-1.06-1.06l3.712-3.713L3.45 9.615a1 1 0 01.63-1.704l3.686-.284a.25.25 0 00.158-.072l2.352-2.353a.25.25 0 00.069-.128l.294-1.47a.75.75 0 011.266-.384l4.95 4.95a.75.75 0 01-.384 1.266l-1.47.294a.25.25 0 00-.128.068l-2.353 2.353a.25.25 0 00-.073.158l-.283 3.685a1 1 0 01-1.704.63zm3.467-1.456a1.75 1.75 0 01.507-1.104l2.353-2.352a1.75 1.75 0 01.894-.479l.097-.02-2.968-2.967-.02.097a1.75 1.75 0 01-.478.894L8.984 8.616a1.75 1.75 0 01-1.103.507l-2.601.2 5.472 5.472z" fill="#99a2ad" fill-rule="nonzero"/></g></svg><svg height="36" width="36" viewBox="-4 -4 36 36" id="template_outline_28" x="36" xmlns="http://www.w3.org/2000/svg"><g fill="none" fill-rule="evenodd"><path d="M0 0h28v28H0z"/><g stroke="#3f8ae0" stroke-linecap="round" stroke-linejoin="round" stroke-width="2"><path d="M5 14h18M5 6h18M5 22h10"/></g></g></svg></svg>