<svg viewBox="0 0 124 100" xmlns="http://www.w3.org/2000/svg" xmlns:xlink="http://www.w3.org/1999/xlink"><svg height="36" width="36" viewBox="-4 -4 36 36" id="cart" xmlns="http://www.w3.org/2000/svg"><path fill="#3F8AE0" d="M21.154 8c1.337 0 1.822.14 2.311.4.49.262.873.646 1.134 1.135l.093.185c.201.438.308.956.308 2.126v7.103l-.005.582c-.04 2.018-.29 2.834-.73 3.655-.479.897-1.182 1.6-2.079 2.08S20.401 26 17.95 26h-7.898l-.582-.005c-2.018-.04-2.834-.29-3.655-.73a4.998 4.998 0 01-2.08-2.079c-.459-.859-.712-1.71-.733-3.938L3 11.846c0-1.337.14-1.822.4-2.311A2.726 2.726 0 014.536 8.4l.185-.093c.407-.187.882-.292 1.885-.306zm0 2H6.846l-.353.003c-.629.011-.821.058-1.015.161a.727.727 0 00-.314.314c-.112.21-.157.418-.163 1.182L5 18.95c0 1.933.13 2.604.498 3.293.293.548.711.966 1.259 1.259.69.368 1.36.498 3.294.498h7.898c1.934 0 2.605-.13 3.294-.498a2.998 2.998 0 001.259-1.259c.368-.69.498-1.36.498-3.294v-7.103c0-.917-.043-1.142-.164-1.368a.727.727 0 00-.314-.314c-.194-.103-.386-.15-1.015-.161zM19 12a1 1 0 110 2 1 1 0 010-2zM9 12a1 1 0 110 2 1 1 0 010-2zm5-10a6 6 0 016 6h-2a4 4 0 10-8 0H8a6 6 0 016-6z"/></svg><svg width="32" height="32" viewBox="-4 -4 32 32" id="cart_trash" y="36" xmlns="http://www.w3.org/2000/svg"><g fill="none" fill-rule="evenodd"><path d="M0 0h24v24H0z"/><path d="M8.5 21h7a2.5 2.5 0 002.5-2.5V7H6v11.5A2.5 2.5 0 008.5 21zm.268-17A2 2 0 0110.5 3h3a2 2 0 011.732 1H18a1 1 0 011 1v.75a.25.25 0 01-.25.25H5.25A.25.25 0 015 5.75V5a1 1 0 011-1h2.768z" fill="#AAAEB3" fill-rule="nonzero"/></g></svg><svg height="32" width="32" viewBox="-4 -4 32 32" id="delivery_outline_24" x="32" y="36" xmlns="http://www.w3.org/2000/svg"><g fill="none"><path d="M0 0h24v24H0z"/><g fill="#ffa000"><path d="M11.1 10.585l-7.2-3.2v9.03l7.2 3.2zm1.8 0v9.03l7.2-3.2v-9.03zm-.9-1.57l8.634-3.837A.9.9 0 0121.9 6v11a.9.9 0 01-.534.822l-9 4a.9.9 0 01-.732 0l-9-4A.9.9 0 012.1 17V6a.9.9 0 011.266-.822z"/><path d="M9.716 4l7.15 3.178-.732 1.644L7.5 4.985 3.366 6.822a.9.9 0 01-.732-1.645l9-4a.9.9 0 01.732 0l9 4a.9.9 0 11-.732 1.645L12 2.985z"/></g></g></svg><svg width="20" height="17" viewBox="-4 -4 20 17" id="dropdown-12" x="56" y="68" xmlns="http://www.w3.org/2000/svg"><g fill="none" fill-rule="evenodd"><path d="M0 0h12v9H0z"/><path d="M6 5.084l2.83-2.33a.563.563 0 01.715.868L6.358 6.247a.563.563 0 01-.716 0L2.455 3.622a.563.563 0 01.715-.869L6 5.083z" fill="#397ecc" fill-rule="nonzero"/></g></svg><svg width="20" height="17" viewBox="-4 -4 20 17" id="dropdown_12" x="76" y="68" xmlns="http://www.w3.org/2000/svg"><g fill="none" fill-rule="evenodd" opacity=".6"><path d="M0 0h12v9H0z"/><path d="M6 5.084l2.83-2.33a.563.563 0 01.715.868L6.358 6.247a.563.563 0 01-.716 0L2.455 3.622a.563.563 0 01.715-.869L6 5.083z" fill="#397ecc" fill-rule="nonzero"/></g></svg><svg height="16" viewBox="84 0 16 16" width="16" id="goto_arrow_black" x="104" y="20" xmlns="http://www.w3.org/2000/svg"><g fill="none"><path d="M88 4h8v8h-8z"/><path d="M90.2 10.8c-.2.3-.2.7.1.9s.7.2.9-.1l2.6-3.2c.2-.2.2-.6 0-.8l-2.6-3.2c-.2-.3-.6-.3-.9-.1s-.3.6-.1.9L92.5 8z" fill="#000"/></g></svg><svg height="36" width="36" viewBox="-4 -4 36 36" id="help" x="36" xmlns="http://www.w3.org/2000/svg"><g fill="none" fill-rule="evenodd"><path d="M0 0h28v28H0z"/><path d="M14 2c6.624 0 12 5.376 12 12s-5.376 12-12 12S2 20.624 2 14 7.376 2 14 2zm0 2C8.48 4 4 8.48 4 14s4.48 10 10 10 10-4.48 10-10S19.52 4 14 4zm0 14.1a1.4 1.4 0 110 2.8 1.4 1.4 0 010-2.8zm-.066-11.11c2.05 0 3.712 1.678 3.712 3.75 0 .825-.334 1.575-.863 2.11l-.835.862c-.497.509-.855.95-1.006 1.72-.014.07-.024.174-.03.31a.926.926 0 01-.925.883h-.01a.928.928 0 01-.928-.928v-.002c.001-.26.01-.43.025-.512a3.81 3.81 0 011.018-1.94l1.15-1.181a1.871 1.871 0 00-1.308-3.197c-.649 0-1.222.34-1.554.854a3.901 3.901 0 00-.248.485.928.928 0 01-1.147.499l-.035-.012a.886.886 0 01-.534-1.175 6.97 6.97 0 01.19-.427c.638-1.297 1.838-2.099 3.328-2.099z" fill="#fff" fill-rule="nonzero"/></g></svg><svg height="32" width="32" viewBox="-4 -4 32 32" id="item_stub" x="72" xmlns="http://www.w3.org/2000/svg"><g fill="none"><path d="M0 0h24v24H0z"/><path d="M12 1a5 5 0 015 5h1.757c.78 0 1.063.081 1.348.234.285.152.509.376.661.661.153.285.234.568.234 1.348v6.668c0 2.117-.22 2.885-.634 3.659a4.316 4.316 0 01-1.796 1.796c-.774.414-1.542.634-3.66.634H9.09c-2.118 0-2.886-.22-3.66-.634a4.316 4.316 0 01-1.796-1.796C3.22 17.796 3 17.028 3 14.91V8.244c0-.78.081-1.063.234-1.348a1.59 1.59 0 01.661-.661C4.18 6.08 4.463 6 5.243 6H7a5 5 0 015-5zm4.156 7h-.062a.944.944 0 00-.46.1.681.681 0 00-.284.284.851.851 0 00-.094.324l-.006.136v.062c0 .193.035.338.1.46a.681.681 0 00.284.284c.091.049.196.08.324.094l.136.006h.062a.944.944 0 00.46-.1.681.681 0 00.284-.284.851.851 0 00.094-.324L17 8.906v-.062a.944.944 0 00-.1-.46.681.681 0 00-.284-.284.944.944 0 00-.46-.1zm-8.25 0h-.062c-.193 0-.338.035-.46.1s-.218.161-.284.284-.1.267-.1.46v.062c0 .193.035.338.1.46s.161.218.284.284.267.1.46.1h.062c.193 0 .338-.035.46-.1s.218-.161.284-.284.1-.267.1-.46v-.062c0-.193-.035-.338-.1-.46s-.161-.218-.284-.284S8.1 8 7.906 8zM12 2.75A3.25 3.25 0 008.75 6h6.5A3.25 3.25 0 0012 2.75z" fill="#a8b8c8"/></g></svg><svg height="20" width="20" viewBox="-4 -4 20 20" id="market_12" x="104" xmlns="http://www.w3.org/2000/svg"><g fill="none"><path d="M0 0h12v12H0z"/><path d="M6 0a3 3 0 013 3h.718c.446 0 .607.046.77.134.163.087.291.215.378.378.088.163.134.324.134.77v3.513c0 1.115-.116 1.519-.334 1.926a2.272 2.272 0 01-.945.945c-.407.218-.811.334-1.926.334h-3.59c-1.115 0-1.519-.116-1.926-.334a2.272 2.272 0 01-.945-.945C1.116 9.314 1 8.91 1 7.795V4.282c0-.446.046-.607.134-.77a.909.909 0 01.378-.378c.163-.088.324-.134.77-.134H3a3 3 0 013-3zM3.537 4h-.074a.517.517 0 00-.258.053.363.363 0 00-.152.152.447.447 0 00-.05.177L3 4.463v.074c0 .119.019.193.053.258a.363.363 0 00.152.152.447.447 0 00.177.05L3.463 5h.074a.517.517 0 00.258-.053.363.363 0 00.152-.152.447.447 0 00.05-.177L4 4.537v-.074a.517.517 0 00-.053-.258.363.363 0 00-.152-.152A.517.517 0 003.537 4zm5 0h-.074a.517.517 0 00-.258.053.363.363 0 00-.152.152.517.517 0 00-.053.258v.074c0 .119.019.193.053.258a.363.363 0 00.152.152c.065.034.14.053.258.053h.074a.517.517 0 00.258-.053.363.363 0 00.152-.152A.517.517 0 009 4.537v-.074a.517.517 0 00-.053-.258.363.363 0 00-.152-.152A.517.517 0 008.537 4zM6 1a2 2 0 00-2 2h4a2 2 0 00-2-2z" fill="#fff"/></g></svg><svg height="24" width="24" viewBox="-4 -4 24 24" id="market_16" x="32" y="68" xmlns="http://www.w3.org/2000/svg"><g fill="none"><path d="M0 0h16v16H0z"/><path d="M8 0a4 4 0 014 4h1.398c.557 0 .759.058.963.167s.363.269.472.472c.109.204.167.406.167.963v5.232c0 1.448-.15 1.974-.434 2.503-.283.53-.699.946-1.229 1.229-.53.283-1.055.434-2.503.434H5.166c-1.448 0-1.974-.15-2.503-.434a2.953 2.953 0 01-1.229-1.229C1.151 12.807 1 12.282 1 10.834V5.602c0-.557.058-.759.167-.963.109-.203.269-.363.472-.472.204-.109.406-.167.963-.167H4a4 4 0 014-4zM4.771 5.5H4.73c-.165 0-.29.03-.396.087a.59.59 0 00-.246.246.74.74 0 00-.081.28L4 6.228v.042c0 .165.03.29.087.396a.59.59 0 00.246.246c.079.043.17.07.28.081L4.728 7h.042c.165 0 .29-.03.396-.087a.59.59 0 00.246-.246.74.74 0 00.081-.28l.006-.116V6.23c0-.165-.03-.29-.087-.396a.59.59 0 00-.246-.246.816.816 0 00-.396-.087zm6.5 0h-.042c-.165 0-.29.03-.396.087a.59.59 0 00-.246.246.816.816 0 00-.087.396v.042c0 .165.03.29.087.396a.59.59 0 00.246.246.816.816 0 00.396.087h.042c.165 0 .29-.03.396-.087a.59.59 0 00.246-.246.816.816 0 00.087-.396V6.23c0-.165-.03-.29-.087-.396a.59.59 0 00-.246-.246.816.816 0 00-.396-.087zM8 1.5A2.5 2.5 0 005.5 4h5A2.5 2.5 0 008 1.5z" fill="#2c2d2e"/></g></svg><svg height="32" width="32" viewBox="-4 -4 32 32" id="money_transfer_outline_24" x="72" y="32" xmlns="http://www.w3.org/2000/svg"><g fill="none" fill-rule="evenodd"><path d="M0 0h24v24H0z"/><path d="M20.1 8.9H3.9v5.895c0 .88.06 1.187.228 1.502.134.25.325.441.575.575.315.169.622.228 1.502.228h12.622l-1.463-1.464a.9.9 0 111.272-1.272l3 3a.9.9 0 010 1.272l-3 3a.9.9 0 11-1.272-1.272l1.463-1.464H6.205c-1.152 0-1.74-.113-2.35-.44a3.171 3.171 0 01-1.315-1.315c-.327-.61-.44-1.198-.44-2.35v-7.59c0-1.152.113-1.74.44-2.35A3.171 3.171 0 013.855 3.54c.61-.327 1.198-.44 2.35-.44h11.59c1.152 0 1.74.113 2.35.44.565.302 1.013.75 1.315 1.315.327.61.44 1.198.44 2.35V12a.9.9 0 11-1.8 0zm0-1.8c-.005-.8-.066-1.095-.228-1.397a1.372 1.372 0 00-.575-.575c-.315-.169-.622-.228-1.502-.228H6.205c-.88 0-1.187.06-1.502.228-.25.134-.441.325-.575.575-.162.302-.223.597-.228 1.397z" fill="#63b9ba" fill-rule="nonzero"/></g></svg><svg height="32" width="32" viewBox="-4 -4 32 32" id="return_outline_24" y="68" xmlns="http://www.w3.org/2000/svg"><g fill="none"><path d="M0 0h24v24H0z"/><path d="M5.173 17.9l2.463 2.464a.9.9 0 11-1.272 1.272l-4-4a.9.9 0 010-1.272l4-4a.9.9 0 111.272 1.272L5.173 16.1H15a5.1 5.1 0 000-10.2H3a.9.9 0 010-1.8h12a6.9 6.9 0 110 13.8z" fill="#528bcc"/></g></svg></svg>