<svg viewBox="0 0 204 184" xmlns="http://www.w3.org/2000/svg" xmlns:xlink="http://www.w3.org/1999/xlink"><svg height="28" width="28" viewBox="-4 -4 28 28" id="article_outline_20" x="112" y="72" xmlns="http://www.w3.org/2000/svg"><g fill="none" fill-rule="evenodd"><path d="M0 0h20v20H0z"/><path d="M17.5 5.25a.752.752 0 00-.744-.75H3.244a.745.745 0 00-.744.75c0 .414.341.75.744.75h13.512a.745.745 0 00.744-.75zm0 5a.752.752 0 00-.744-.75H3.244a.745.745 0 00-.744.75c0 .414.341.75.744.75h13.512a.745.745 0 00.744-.75zm-15 5c0 .414.337.75.755.75h8.99a.75.75 0 00.755-.75.752.752 0 00-.755-.75h-8.99a.75.75 0 00-.755.75z" fill="#99a2ad" fill-rule="nonzero"/></g></svg><svg width="28" height="28" viewBox="-4 -4 28 28" id="education_outline_20" x="68" y="100" xmlns="http://www.w3.org/2000/svg"><g fill="none" fill-rule="evenodd"><path d="M0 0h20v20H0z"/><path d="M10.601 2.154l7.75 4.25c.414.227.649.655.65 1.096H19v5.25a.75.75 0 11-1.5 0V9.062l-1.5.822V13c0 2.8-2.717 5-6 5s-6-2.2-6-5V9.884L1.649 8.596a1.25 1.25 0 010-2.192l7.75-4.25a1.25 1.25 0 011.202 0zm3.899 8.553l-3.9 2.139a1.25 1.25 0 01-1.202 0l-3.9-2.139L5.5 13c0 1.894 1.984 3.5 4.5 3.5s4.5-1.606 4.5-3.5v-2.293zM10 3.535L2.77 7.5 10 11.465 17.23 7.5 10 3.535z" fill="#99A2AD" fill-rule="nonzero"/></g></svg><svg width="28" height="28" viewBox="-4 -4 28 28" id="followers_outline_20" x="96" y="100" xmlns="http://www.w3.org/2000/svg"><g fill="none" fill-rule="evenodd"><path opacity=".4" d="M0 0h20v20H0z"/><path d="M5.5 13a1.5 1.5 0 110 3 1.5 1.5 0 010-3zm-.75-5.5c4.364 0 7.75 3.386 7.75 7.75a.75.75 0 11-1.5 0C11 11.714 8.286 9 4.75 9a.75.75 0 010-1.5zm0-5c7.164 0 12.75 5.586 12.75 12.75a.75.75 0 11-1.5 0C16 8.914 11.086 4 4.75 4a.75.75 0 010-1.5z" fill="#99A2AD" fill-rule="nonzero"/></g></svg><svg width="28" height="28" viewBox="-4 -4 28 28" id="gift_outline_20" x="148" xmlns="http://www.w3.org/2000/svg"><g fill="none" fill-rule="evenodd"><path d="M0 0h20v20H0z"/><path d="M12.766 2.25C14.506 2.25 16 3.53 16 5.09c0 .632-.212 1.106-.633 1.477a2.758 2.758 0 012.129 2.68v.217c0 .588-.084.989-.29 1.372-.2.375-.499.674-.874.875a2.252 2.252 0 01-.33.145L16 13.796c0 1.128-.109 1.692-.423 2.279a3.021 3.021 0 01-1.252 1.252c-.587.314-1.15.423-2.28.423h-4.09c-1.13 0-1.693-.109-2.28-.423a3.021 3.021 0 01-1.252-1.252c-.314-.587-.423-1.15-.423-2.28v-1.94a2.252 2.252 0 01-.331-.144c-.376-.2-.674-.5-.875-.875-.205-.383-.29-.784-.29-1.372v-.216a2.745 2.745 0 011.363-2.376c.24-.14.498-.243.769-.305C4.212 6.197 4 5.723 4 5.09c0-1.56 1.493-2.84 3.234-2.84 1.202 0 2.18.988 2.766 2.218.585-1.23 1.564-2.218 2.766-2.218zM9.25 12H5.5v1.795c0 .903.064 1.233.245 1.572.148.277.36.49.638.638.34.181.67.245 1.572.245H9.25V12zm5.25 0h-3.75v4.25h1.295c.903 0 1.233-.064 1.572-.245.277-.148.49-.36.638-.638.181-.34.245-.67.245-1.572V12zM9.25 7.996H5.257a1.245 1.245 0 00-1.082.62c-.11.19-.17.405-.17.632v.216c0 .358.034.52.112.665.06.114.145.198.259.26.146.077.307.111.665.111H9.25V7.996zm5.494 0H10.75V10.5h4.21c.358 0 .52-.034.665-.112a.613.613 0 00.26-.26c.077-.145.11-.306.11-.664v-.216a1.245 1.245 0 00-.619-1.081 1.245 1.245 0 00-.632-.17zM12.766 3.75c-.66 0-1.49 1.21-1.753 2.34-.042.18.183.283 1.236.076 1.59-.313 2.251-.662 2.251-1.075 0-.677-.775-1.341-1.734-1.341zm-5.532 0c-.96 0-1.734.664-1.734 1.34 0 .414.661.763 2.251 1.076 1.053.207 1.278.104 1.236-.075C8.724 4.959 7.895 3.75 7.234 3.75z" fill="#99A2AD" fill-rule="nonzero"/></g></svg><svg width="32" height="32" viewBox="-4 -4 32 32" id="gift_outline_24" x="36" y="100" xmlns="http://www.w3.org/2000/svg"><g fill="none" fill-rule="evenodd"><path d="M0 0h24v24H0z"/><path d="M19 5.728c0 .57-.244 1.07-.671 1.497A4.003 4.003 0 0121 11v1a3.001 3.001 0 01-2 2.83v3.173a4 4 0 01-4 4H9a4 4 0 01-4-4V14.83A3.001 3.001 0 013 12v-1a4.002 4.002 0 012.672-3.774C5.244 6.799 5 6.298 5 5.728 5 3.642 7.533 1.8 9.547 2.472c.898.3 1.698 1.081 2.453 2.335.755-1.254 1.555-2.036 2.453-2.335C16.467 1.8 19 3.642 19 5.728zM11 15H7v3.003a2 2 0 002 2h2V15zm6 0h-4v5.002l2 .001a2 2 0 002-2V15zm0-6h-4v4h5a1 1 0 001-1v-1a2 2 0 00-2-2zm-6 0H7a2 2 0 00-2 2v1a1 1 0 00.883.993L6 13h5V9zM7 5.727c0 .368 1.777 1.03 3.876 1.22-.74-1.55-1.433-2.403-1.961-2.579C8.199 4.131 7 5.003 7 5.73zm8.085-1.359c-.528.176-1.221 1.029-1.96 2.58C15.222 6.758 17 6.095 17 5.728c0-.726-1.2-1.598-1.915-1.36z" fill="#3F8AE0" fill-rule="nonzero"/></g></svg><svg width="28" height="28" viewBox="-4 -4 28 28" id="globe_outline_20" x="148" y="28" xmlns="http://www.w3.org/2000/svg"><g fill="none" fill-rule="evenodd"><path d="M0 0h20v20H0z"/><path d="M10 1.5a8.5 8.5 0 110 17 8.5 8.5 0 010-17zm-2.992 12l-3.07.001a7.01 7.01 0 004.554 3.336 14.35 14.35 0 01-1.484-3.336zm5.984 0a14.352 14.352 0 01-1.483 3.336 7.007 7.007 0 004.554-3.335h-3.07zm-1.572 0H8.58c.33.985.804 1.96 1.42 2.924.616-.965 1.09-1.94 1.42-2.924zm.393-5.5H8.187a10.767 10.767 0 000 4.001h3.626a10.767 10.767 0 000-4.001zm-5.15 0H3.29A7.001 7.001 0 003 10c0 .695.101 1.367.29 2h3.374a12.26 12.26 0 010-4zM16.71 8h-3.374a12.263 12.263 0 010 4h3.374c.189-.633.29-1.305.29-2 0-.695-.101-1.366-.29-2zM8.491 3.164l-.128.029A7.012 7.012 0 003.937 6.5h3.07c.333-1.13.828-2.242 1.484-3.336zM10 3.576a13.29 13.29 0 00-1.42 2.925h2.84A13.29 13.29 0 0010 3.576zm1.508-.413l.052.086A14.303 14.303 0 0112.993 6.5h3.07a7.01 7.01 0 00-4.555-3.337z" fill="#99A2AD" fill-rule="nonzero"/></g></svg><svg width="36" height="36" viewBox="-4 -4 36 36" id="history_outline_28" y="64" xmlns="http://www.w3.org/2000/svg"><g fill="none" fill-rule="evenodd"><path d="M0 0h28v28H0z"/><path d="M14 2c6.627 0 12 5.373 12 12s-5.373 12-12 12c-3.226 0-6.251-1.28-8.487-3.516a1 1 0 011.415-1.414A9.964 9.964 0 0014 24c5.523 0 10-4.477 10-10S19.523 4 14 4a9.974 9.974 0 00-7.143 3H8.5a1 1 0 01.117 1.993L8.5 9h-4a1 1 0 01-.993-.883L3.5 8V4a1 1 0 011.993-.117L5.5 4v1.529A11.973 11.973 0 0114 2zm0 6a1 1 0 01.993.883L15 9v4.586l2.707 2.707a1 1 0 01-1.32 1.497l-.094-.083-3-3a1 1 0 01-.284-.576L13 14V9a1 1 0 011-1z" fill="#3F8AE0" fill-rule="nonzero"/></g></svg><svg width="28" height="28" viewBox="-4 -4 28 28" id="home_outline_20" x="148" y="56" xmlns="http://www.w3.org/2000/svg"><g fill="none" fill-rule="evenodd"><path opacity=".4" d="M0 0h20v20H0z"/><path d="M17.741 11.004a.95.95 0 00.651-1.643l-7.604-7.149a1.15 1.15 0 00-1.576 0l-7.607 7.15a.95.95 0 00.65 1.642h1.24v3.495a2.25 2.25 0 002.25 2.25H9.5v-3.995a.502.502 0 111.004 0v3.995h3.742a2.25 2.25 0 002.25-2.25v-3.495h1.246zM8 15.249H5.745a.75.75 0 01-.75-.75V9.504H3.644L10 3.53l6.353 5.974h-1.358v4.995a.75.75 0 01-.75.75h-2.242v-2.495a2.002 2.002 0 10-4.004 0v2.495z" fill="#99A2AD" fill-rule="nonzero"/></g></svg><svg width="28" height="28" viewBox="-4 -4 28 28" id="info_20" x="148" y="84" xmlns="http://www.w3.org/2000/svg"><g fill="none" fill-rule="evenodd"><path d="M0 0h20v20H0z"/><path d="M10 1c4.968 0 9 4.032 9 9s-4.032 9-9 9-9-4.032-9-9 4.032-9 9-9zm0 8a.9.9 0 00-.893.787L9.1 9.9v3.7a.9.9 0 001.793.113l.007-.113V9.9A.9.9 0 0010 9zm0-3.5a1 1 0 100 2 1 1 0 000-2z" fill="#4986CC" fill-rule="nonzero"/></g></svg><svg width="28" height="28" viewBox="-4 -4 28 28" id="like_outline_20" y="136" xmlns="http://www.w3.org/2000/svg"><g fill="none" fill-rule="evenodd"><path opacity=".4" d="M0 0h20v20H0z"/><path d="M13.409 3A5.091 5.091 0 0118.5 8.091c0 2.683-1.023 4.044-5.374 7.428l-1.873 1.456a2.042 2.042 0 01-2.506 0l-1.873-1.456C2.524 12.135 1.5 10.774 1.5 8.09A5.091 5.091 0 016.591 3c1.263 0 2.41.491 3.409 1.432C10.999 3.491 12.146 3 13.409 3zm0 1.5c-1.042 0-1.981.491-2.835 1.507L10 6.691l-.574-.684C8.572 4.991 7.633 4.5 6.59 4.5A3.591 3.591 0 003 8.091c0 2.084.78 3.12 4.795 6.244l1.872 1.456c.196.152.47.152.666 0l1.872-1.456C16.22 11.21 17 10.175 17 8.09a3.591 3.591 0 00-3.591-3.59z" fill="#99A2AD" fill-rule="nonzero"/></g></svg><svg height="20" width="20" viewBox="-4 -4 20 20" id="lock_12" x="176" y="127" xmlns="http://www.w3.org/2000/svg"><g fill="none" fill-rule="evenodd"><path d="M0 0h12v12H0z"/><path d="M3 5V3.501A3.003 3.003 0 016 .5c1.657 0 3 1.337 3 2.992V5h.748c.415 0 .752.34.752.76v4.48a.76.76 0 01-.752.76H2.252a.756.756 0 01-.752-.76V5.76c0-.42.342-.76.752-.76zm1.5-1.5V5h3V3.5C7.5 2.666 6.828 2 6 2c-.834 0-1.5.672-1.5 1.5z" fill="#306096" fill-rule="nonzero"/></g></svg><svg width="28" height="28" viewBox="-4 -4 28 28" id="lock_20" x="28" y="136" xmlns="http://www.w3.org/2000/svg"><g fill="none" fill-rule="evenodd"><path d="M0 0h20v20H0z"/><g transform="translate(3.5 2.833)" stroke="#99A2AD" stroke-linecap="round" stroke-linejoin="round" stroke-width="1.5"><rect x=".5" y="6.167" width="12" height="8.571" rx="2.5"/><path d="M3.5 5.045v-1.75C3.498 1.69 4.935.167 6.5.167s3 1.515 3 3.022v1.853"/></g></g></svg><svg width="36" height="36" viewBox="-4 -4 36 36" id="logo_facebook_28" x="36" y="64" xmlns="http://www.w3.org/2000/svg"><g fill="none" fill-rule="evenodd"><path d="M0 0h28v28H0z"/><path d="M26 14c0-6.627-5.373-12-12-12S2 7.373 2 14c0 5.99 4.388 10.954 10.125 11.854V17.47H9.078V14h3.047v-2.644c0-3.007 1.792-4.668 4.533-4.668 1.312 0 2.686.234 2.686.234v2.953H17.83c-1.491 0-1.956.925-1.956 1.874V14h3.328l-.532 3.469h-2.796v8.385C21.612 24.954 26 19.99 26 14" fill="#99A2AD" fill-rule="nonzero"/></g></svg><svg height="36" width="36" viewBox="-4 -4 36 36" id="logo_instagram_28" x="72" y="64" xmlns="http://www.w3.org/2000/svg"><g fill="none" fill-rule="evenodd"><path d="M0 0h28v28H0z"/><path d="M12.904 3h2.192c2.01.004 2.428.02 3.44.066 1.17.054 1.97.24 2.67.512a5.392 5.392 0 011.948 1.268 5.392 5.392 0 011.269 1.949c.271.7.457 1.499.51 2.67.047 1.011.063 1.429.066 3.439v2.192c-.003 2.01-.019 2.428-.065 3.44-.054 1.17-.24 1.97-.511 2.67a5.392 5.392 0 01-1.27 1.948 5.392 5.392 0 01-1.948 1.269c-.7.271-1.499.457-2.67.51-1.011.047-1.429.063-3.439.066h-2.192c-2.01-.003-2.428-.019-3.44-.065-1.17-.054-1.97-.24-2.67-.511a5.392 5.392 0 01-1.948-1.27 5.392 5.392 0 01-1.268-1.948c-.272-.7-.458-1.499-.512-2.67-.046-1.011-.062-1.429-.065-3.439v-2.192c.003-2.01.019-2.428.065-3.44.054-1.17.24-1.97.512-2.67a5.392 5.392 0 011.268-1.948 5.392 5.392 0 011.949-1.268c.7-.272 1.499-.458 2.67-.512 1.011-.046 1.429-.062 3.439-.065h2.192zm1.668 1.982h-1.144c-2.417.002-2.793.015-3.873.064-1.072.049-1.655.228-2.042.379-.514.2-.88.438-1.265.823a3.408 3.408 0 00-.823 1.265c-.15.387-.33.97-.379 2.042-.05 1.08-.062 1.456-.064 3.873v1.144c.002 2.417.015 2.793.064 3.873.049 1.072.228 1.655.379 2.042.2.514.438.88.823 1.265s.751.624 1.265.823c.387.15.97.33 2.042.379 1 .046 1.396.06 3.368.063h2.154c1.972-.003 2.368-.017 3.368-.063 1.072-.049 1.655-.228 2.042-.379.514-.2.88-.438 1.265-.823s.624-.751.823-1.265c.15-.387.33-.97.379-2.042.046-1 .06-1.396.063-3.368v-2.153c-.003-1.973-.017-2.369-.063-3.369-.049-1.072-.228-1.655-.379-2.042a3.41 3.41 0 00-.823-1.265 3.408 3.408 0 00-1.265-.823c-.387-.15-.97-.33-2.042-.379-1.08-.05-1.456-.062-3.873-.064zm-.575 3.375a5.647 5.647 0 110 11.293 5.647 5.647 0 010-11.293zm0 1.981a3.666 3.666 0 100 7.331 3.666 3.666 0 000-7.331zm5.87-3.524a1.32 1.32 0 110 2.64 1.32 1.32 0 010-2.64z" fill="#99a2ad" fill-rule="nonzero"/></g></svg><svg height="36" width="36" viewBox="-4 -4 36 36" id="logo_skype_28" x="112" xmlns="http://www.w3.org/2000/svg"><g fill="none" fill-rule="evenodd"><path d="M0 0h28v28H0z"/><path d="M8.856 2.334c1.067 0 2.122.266 3.059.766a11.125 11.125 0 011.671-.19l.42-.008c1.488 0 2.93.291 4.289.867a10.984 10.984 0 013.502 2.367 10.985 10.985 0 012.36 3.51 10.98 10.98 0 01.867 4.3c0 .672-.063 1.345-.183 2.001.539.97.825 2.067.825 3.182a6.499 6.499 0 01-1.91 4.623 6.51 6.51 0 01-7.82 1.068c-.633.112-1.282.17-1.93.17a10.9 10.9 0 01-4.288-.868 10.967 10.967 0 01-3.503-2.366 10.998 10.998 0 01-2.36-3.51 10.99 10.99 0 01-.867-4.3c0-.639.057-1.278.166-1.904a6.542 6.542 0 01-.82-3.17c0-1.746.678-3.388 1.91-4.623a6.47 6.47 0 014.612-1.915zm4.968 4.396c-2.616 0-5.402 1.113-5.402 4.078 0 1.429.51 2.948 3.313 3.653l3.482.871c1.053.26 1.317.855 1.317 1.39 0 .892-.884 1.763-2.483 1.763-3.126 0-2.692-2.412-4.367-2.412-.753 0-1.299.52-1.299 1.262 0 1.446 1.75 3.375 5.666 3.375 3.724 0 5.57-1.8 5.57-4.21 0-1.556-.717-3.208-3.54-3.838l-2.576-.573c-.98-.224-2.11-.52-2.11-1.446 0-.93.793-1.578 2.222-1.578 2.88 0 2.616 1.984 4.046 1.984.752 0 1.41-.443 1.41-1.206 0-1.779-2.84-3.113-5.25-3.113zm-1.91-3.63c.004-.001-.038.008 0 0z" fill="#99a2ad" fill-rule="nonzero"/></g></svg><svg width="36" height="36" viewBox="-4 -4 36 36" id="logo_twitter_28" x="112" y="36" xmlns="http://www.w3.org/2000/svg"><g fill="none" fill-rule="evenodd"><path d="M0 0h28v28H0z"/><path d="M9.921 22.935c8.298 0 12.835-6.875 12.835-12.835 0-.196-.004-.39-.013-.583a9.177 9.177 0 002.25-2.336 9.005 9.005 0 01-2.59.71 4.526 4.526 0 001.984-2.495 9.04 9.04 0 01-2.865 1.095 4.512 4.512 0 00-7.687 4.114 12.807 12.807 0 01-9.298-4.713 4.495 4.495 0 00-.611 2.267c0 1.565.796 2.947 2.007 3.755a4.478 4.478 0 01-2.043-.565v.058a4.513 4.513 0 003.618 4.422 4.524 4.524 0 01-2.037.078 4.516 4.516 0 004.214 3.133 9.052 9.052 0 01-5.602 1.93c-.364 0-.723-.02-1.077-.062a12.771 12.771 0 006.915 2.027" fill="#99A2AD" fill-rule="nonzero"/></g></svg><svg viewBox="-4 -4 48 48" width="48" height="48" id="lovina_40" x="64" xmlns="http://www.w3.org/2000/svg"><defs><linearGradient id="aqa" x1="-103.36" y1="145.99" x2="-104.09" y2="145.72" gradientTransform="matrix(39.67 0 0 -40 4138.03 5853)" gradientUnits="userSpaceOnUse"><stop offset="0" stop-color="#1657ff"/><stop offset="1" stop-color="#134de3"/></linearGradient><linearGradient id="aqb" x1="-103.63" y1="146.13" x2="-103.09" y2="145.41" gradientTransform="matrix(33.75 0 0 -40 3504.25 5853)" gradientUnits="userSpaceOnUse"><stop offset="0" stop-color="#01d1c5"/><stop offset="1" stop-color="#0af9eb"/></linearGradient></defs><path d="M20 40A20 20 0 01.43 24.14 20 20 0 0020 40zm0-40a20 20 0 019.66 37.52l-.12.08a9.92 9.92 0 004.21-7.88c0-3.22-2-6.17-4-6.95l-.11-.07a10 10 0 10-8.29 7.21C12.92 31.24 4.92 23.41 6 14.29 6.58 9.46 9.87 1.15 19.93 0zM1.41 12.61a19.7 19.7 0 00-1.08 3.75A20 20 0 0118.74 0 20 20 0 001.41 12.61z" fill-rule="evenodd" fill="url(#aqa)"/><path d="M20 40c.52 0 1 0 1.55-.06a19.83 19.83 0 008-2.34 9.92 9.92 0 004.21-7.88c0-3.22-2-6.17-4-6.95a5.13 5.13 0 00-7.16 6.88C13.73 32 4.86 23.86 6 14.29 6.58 9.46 9.87 1.14 19.94 0A20 20 0 0020 40z" fill="url(#aqb)"/></svg><svg height="24" width="20" viewBox="-4 -4 20 24" id="online_composite_16" x="176" y="56" xmlns="http://www.w3.org/2000/svg"><g fill="none" fill-rule="evenodd"><path d="M0 0h12v16H0z"/><g fill-rule="nonzero"><path d="M6 14A6 6 0 116 2a6 6 0 010 12z" fill="#fff"/><circle cx="6" cy="8" fill="#4bb34b" r="4"/></g></g></svg><svg height="28" width="24" viewBox="-4 -4 24 28" id="online_composite_20" x="124" y="100" xmlns="http://www.w3.org/2000/svg"><g fill="none" fill-rule="evenodd"><path d="M0 0h16v20H0z"/><path d="M8 17.5a7.5 7.5 0 110-15 7.5 7.5 0 010 15z" fill="#fff" fill-rule="nonzero"/><path d="M0 0h16v20H0z"/><circle cx="8" cy="10" fill="#4bb34b" fill-rule="nonzero" r="5"/></g></svg><svg height="20" width="16" viewBox="-4 -4 16 20" id="online_mobile_12" x="148" y="112" xmlns="http://www.w3.org/2000/svg"><path d="M5.99 0C7.1 0 8 .9 8 2.01v7.98C8 11.1 7.1 12 5.99 12H2.01C.9 12 0 11.1 0 9.99V2.01C0 .9.9 0 2.01 0zm.007 3H2.003a.502.502 0 00-.503.502v4.996c0 .277.225.502.502.502h3.995a.502.502 0 00.503-.502V3.503A.502.502 0 005.997 3z" fill="#fff"/></svg><svg width="16" height="20" viewBox="-4 -4 16 20" id="online_mobile_12_gray_200" y="164" xmlns="http://www.w3.org/2000/svg"><path d="M5.99 0C7.1 0 8 .9 8 2.01v7.98C8 11.1 7.1 12 5.99 12H2.01C.9 12 0 11.1 0 9.99V2.01C0 .9.9 0 2.01 0h3.98zm.007 3H2.003a.502.502 0 00-.503.502v4.996c0 .277.225.502.502.502h3.995a.502.502 0 00.503-.502V3.503A.502.502 0 005.997 3z" fill="#C4C8CC"/></svg><svg width="20" height="24" viewBox="-4 -4 20 24" id="online_mobile_composite_16" x="176" y="80" xmlns="http://www.w3.org/2000/svg"><g fill="none" fill-rule="evenodd"><path d="M0 0h12v16H0z"/><path d="M4 0h4a4 4 0 014 4v8a4 4 0 01-4 4H4a4 4 0 01-4-4V4a4 4 0 014-4zm0 3h4a2.5 2.5 0 012.5 2.5v5A2.5 2.5 0 018 13H4a2.5 2.5 0 01-2.5-2.5v-5A2.5 2.5 0 014 3z" fill="#FFF" fill-rule="nonzero"/><path d="M8 2a2 2 0 012 2v8a2 2 0 01-2 2H4a2 2 0 01-2-2V4a2 2 0 012-2h4zm0 3H4a.5.5 0 00-.5.5v5a.5.5 0 00.5.5h4a.5.5 0 00.5-.5v-5A.5.5 0 008 5z" fill="#4BB34B" fill-rule="nonzero"/></g></svg><svg height="28" width="24" viewBox="-4 -4 24 28" id="online_mobile_composite_20" x="56" y="136" xmlns="http://www.w3.org/2000/svg"><g fill="none" fill-rule="evenodd"><path d="M0 0h16v20H0z"/><path d="M5.564.5h3.872c1.19 0 1.938.144 2.72.563a4.317 4.317 0 011.781 1.781c.419.782.563 1.53.563 2.72v8.872c0 1.19-.144 1.938-.563 2.72a4.317 4.317 0 01-1.781 1.781c-.782.419-1.53.563-2.72.563H5.564c-1.19 0-1.938-.144-2.72-.563a4.317 4.317 0 01-1.781-1.781C.644 16.374.5 15.626.5 14.436V5.564c0-1.19.144-1.938.563-2.72a4.317 4.317 0 011.781-1.781C3.626.644 4.374.5 5.564.5z" fill="#fff" fill-rule="nonzero"/><path d="M0 0h16v20H0z"/><path d="M9.436 3c.892 0 1.215.093 1.54.267.327.174.583.43.757.756s.267.65.267 1.54v8.873c0 .892-.093 1.215-.267 1.54-.174.327-.43.583-.756.757s-.65.267-1.54.267H5.563c-.892 0-1.215-.093-1.54-.267a1.817 1.817 0 01-.757-.756c-.174-.326-.267-.65-.267-1.54V5.563c0-.892.093-1.215.267-1.54.174-.327.43-.583.756-.757s.65-.267 1.54-.267h3.873zM10 6.5H5a.5.5 0 00-.5.5v6a.5.5 0 00.5.5h5a.5.5 0 00.5-.5V7a.5.5 0 00-.5-.5z" fill="#4bb34b" fill-rule="nonzero"/></g></svg><svg width="28" height="28" viewBox="-4 -4 28 28" id="staff_20" x="80" y="136" xmlns="http://www.w3.org/2000/svg"><g fill="none"><path d="M0 0h20v20H0z"/><path d="M10 1.429a8.571 8.571 0 110 17.142A8.571 8.571 0 0110 1.43zm0 1.428a7.143 7.143 0 100 14.286 7.143 7.143 0 000-14.286zm3.064 4.493a.72.72 0 011.015 0 .72.72 0 010 1.014l-5.002 4.998a.714.714 0 01-1.01 0l-2.5-2.5a.714.714 0 111.01-1.01l1.994 1.995z" fill="#99A2AD"/></g></svg><svg width="36" height="36" viewBox="-4 -4 36 36" id="upload_camera_outline_28" y="100" xmlns="http://www.w3.org/2000/svg"><g fill="none" fill-rule="evenodd"><path d="M0 0h28v28H0z"/><path d="M16.608 3c1.033 0 1.764.336 2.403 1.09l.805 1c.178.222.688.422 1.184.422h.5c2.644 0 4.5 2.052 4.5 5.02v7.448c0 2.657-2.547 5.02-5.5 5.02h-13C4.547 23 2 20.637 2 17.98v-7.448c0-2.968 1.856-5.02 4.5-5.02H7c.496 0 1.006-.2 1.184-.421.203-.252.786-.978.805-1C9.628 3.335 10.36 3 11.392 3h5.216zm0 2h-5.216c-.447 0-.62.08-.876.383l-.775.963C9.146 7.084 8.057 7.512 7 7.512h-.5c-1.492 0-2.5 1.114-2.5 3.02v7.448C4 19.498 5.62 21 7.5 21h13c1.88 0 3.5-1.502 3.5-3.02v-7.448c0-1.906-1.008-3.02-2.5-3.02H21c-1.057 0-2.146-.428-2.741-1.166l-.775-.963c-.257-.304-.429-.383-.876-.383zM14 8.75a5 5 0 110 10 5 5 0 010-10zm0 2a3 3 0 100 6 3 3 0 000-6z" fill="#fff" fill-rule="nonzero"/></g></svg><svg width="28" height="28" viewBox="-4 -4 28 28" id="user_outline_20" x="108" y="136" xmlns="http://www.w3.org/2000/svg"><g fill="none" fill-rule="evenodd"><path opacity=".1" d="M0 0h20v20H0z"/><path d="M12.5 5a2.5 2.5 0 10-5 0 2.5 2.5 0 105 0zM14 5a4 4 0 01-4 4 4 4 0 01-4-4 4 4 0 014-4 4 4 0 014 4zM4 15.5c0 .715.358 1 1 1h10c.642 0 1-.285 1-1 0-2.333-2.567-3.5-6-3.5s-6 1.167-6 3.5zm-1.5 0c0-3.485 3.333-5 7.5-5s7.5 1.515 7.5 5c0 1.628-1.095 2.5-2.5 2.5H5c-1.405 0-2.5-.872-2.5-2.5z" fill="#4986CC" fill-rule="nonzero"/></g></svg><svg width="28" height="28" viewBox="-4 -4 28 28" id="user_outline_20_steel_gray_300" x="136" y="136" xmlns="http://www.w3.org/2000/svg"><g fill="none" fill-rule="evenodd"><path opacity=".1" d="M0 0h20v20H0z"/><path d="M12.5 5a2.5 2.5 0 10-5 0 2.5 2.5 0 105 0zM14 5a4 4 0 01-4 4 4 4 0 01-4-4 4 4 0 014-4 4 4 0 014 4zM4 15.5c0 .715.358 1 1 1h10c.642 0 1-.285 1-1 0-2.333-2.567-3.5-6-3.5s-6 1.167-6 3.5zm-1.5 0c0-3.485 3.333-5 7.5-5s7.5 1.515 7.5 5c0 1.628-1.095 2.5-2.5 2.5H5c-1.405 0-2.5-.872-2.5-2.5z" fill="#99a2ad" fill-rule="nonzero"/></g></svg><svg width="28" height="28" viewBox="-4 -4 28 28" id="users_outline_20" x="176" xmlns="http://www.w3.org/2000/svg"><g fill="none" fill-rule="evenodd"><path opacity=".4" d="M0 0h20v20H0z"/><path d="M14.2 11.17c2.966 0 5.55 1.053 5.55 3.436 0 1.13-.43 1.724-1.334 1.812l-.154.01-5.558.001c.225-.415.36-.919.392-1.499h5.045l.083-.001.044.005c.048.015-.018.036-.018-.328 0-1.186-1.84-1.936-4.05-1.936-.538 0-1.054.044-1.527.129a4.168 4.168 0 00-1.074-1.312c.785-.214 1.674-.317 2.601-.317zm-8 0c2.966 0 5.55 1.053 5.55 3.436 0 1.13-.43 1.724-1.334 1.812l-.154.01-8.015.002c-1.07 0-1.597-.565-1.597-1.824 0-2.383 2.584-3.436 5.55-3.436zm0 1.5c-2.21 0-4.05.75-4.05 1.936l.004.182.009.143.084-.001h7.894l.083-.001.044.005c.048.015-.018.036-.018-.328 0-1.186-1.84-1.936-4.05-1.936zm8-8.94a3.35 3.35 0 110 6.7 3.35 3.35 0 01-3.328-2.965l.004-.14a4.69 4.69 0 00-.02-.43A3.348 3.348 0 0114.2 3.73zm-8 0a3.35 3.35 0 110 6.7 3.35 3.35 0 110-6.7zm8 1.5a1.85 1.85 0 10-.001 3.699A1.85 1.85 0 0014.2 5.23zm-8 0a1.85 1.85 0 10-.001 3.699A1.85 1.85 0 006.2 5.23z" fill="#4986CC" fill-rule="nonzero"/></g></svg><svg height="20" width="20" viewBox="-4 -4 20 20" id="verified_12" x="16" y="164" xmlns="http://www.w3.org/2000/svg"><g fill="none" fill-rule="evenodd"><path d="M0 0h12v12H0z"/><path d="M6.4.32c.266.08.487.203.96.676l.284.284c.14.141.332.22.53.22h.403c.669 0 .911.07 1.156.2.244.131.436.323.567.567.13.245.2.487.2 1.156v.402c0 .2.079.39.22.53l.284.285c.473.473.595.694.676.96.08.264.08.536 0 .8-.08.266-.203.487-.676.96l-.284.284a.75.75 0 00-.22.53v.403c0 .669-.07.911-.2 1.156a1.371 1.371 0 01-.567.567c-.245.13-.487.2-1.156.2h-.402a.75.75 0 00-.53.22l-.285.284c-.473.473-.694.595-.96.676-.264.08-.536.08-.8 0-.266-.08-.487-.203-.96-.676l-.284-.284a.75.75 0 00-.53-.22h-.403c-.669 0-.911-.07-1.156-.2a1.363 1.363 0 01-.567-.567c-.13-.245-.2-.487-.2-1.156v-.402a.75.75 0 00-.22-.53L.996 7.36C.523 6.887.4 6.666.32 6.4a1.363 1.363 0 010-.8c.08-.266.203-.487.676-.96l.284-.284a.75.75 0 00.22-.53v-.403c0-.669.07-.911.2-1.156.131-.244.323-.436.567-.567.245-.13.487-.2 1.156-.2h.402a.75.75 0 00.53-.22L4.64.996C5.113.523 5.334.4 5.6.32c.264-.08.536-.08.8 0zm1.326 3.856L5.1 6.8 4.024 5.726a.6.6 0 00-.848.848l1.5 1.5a.6.6 0 00.848 0l3.05-3.05a.6.6 0 00-.848-.848z" fill="#5c9ce6" fill-rule="nonzero"/></g></svg><svg height="23" width="23" viewBox="-4 -4 23 23" id="verified_16" x="176" y="104" xmlns="http://www.w3.org/2000/svg"><g fill="none" fill-rule="evenodd"><path d="M0 0h15v15H0z"/><path d="M8.001.4c.332.1.608.254 1.199.845l.355.355a.937.937 0 00.663.275h.503c.836 0 1.14.087 1.445.25.305.164.545.404.709.71.163.305.25.608.25 1.444v.503c0 .248.099.487.275.663l.355.355c.591.591.744.867.845 1.199.1.331.1.67 0 1.002s-.254.608-.845 1.199l-.355.355a.937.937 0 00-.275.663v.503c0 .836-.087 1.14-.25 1.445a1.704 1.704 0 01-.71.709c-.305.163-.608.25-1.444.25h-.503a.937.937 0 00-.663.275l-.355.355c-.591.591-.867.744-1.199.845-.331.1-.67.1-1.002 0s-.608-.254-1.199-.845l-.355-.355a.937.937 0 00-.663-.275h-.503c-.836 0-1.14-.087-1.445-.25a1.704 1.704 0 01-.709-.71c-.163-.305-.25-.608-.25-1.444v-.503a.937.937 0 00-.275-.663L1.245 9.2C.654 8.609.5 8.333.4 8c-.1-.33-.1-.669 0-1 .1-.332.254-.608.845-1.199l.355-.355a.937.937 0 00.275-.663V4.28c0-.836.087-1.14.25-1.445.164-.305.404-.545.71-.709.305-.163.608-.25 1.444-.25h.503a.937.937 0 00.663-.275l.355-.355C6.391.654 6.667.5 7 .4c.33-.1.669-.1 1 0zm1.656 4.82L6.375 8.502 5.03 7.157a.75.75 0 00-1.06 1.06l1.875 1.876a.75.75 0 001.06 0l3.813-3.813a.75.75 0 00-1.06-1.06z" fill="#5c9ce6" fill-rule="nonzero"/></g></svg><svg viewBox="-4 -4 64 64" width="64" height="64" id="vk_logo_56" xmlns="http://www.w3.org/2000/svg"><path d="M0 0h56v56H0z" fill="none"/><g fill-rule="evenodd"><path d="M20.64 4h14.72C48.8 4 52 7.2 52 20.64v14.72C52 48.8 48.8 52 35.36 52H20.64C7.2 52 4 48.8 4 35.36V20.64C4 7.2 7.2 4 20.64 4z" fill="#4680c2"/><path d="M43.56 20.29c.22-.75 0-1.29-1.06-1.29H39a1.5 1.5 0 00-1.52 1 29.33 29.33 0 01-4.3 7.16c-.82.81-1.19 1.07-1.64 1.07-.22 0-.54-.26-.54-1v-6.94c0-.89-.26-1.29-1-1.29h-5.5a.84.84 0 00-.89.8c0 .85 1.26 1 1.39 3.42v5.15c0 1.13-.2 1.33-.65 1.33-1.19 0-4.07-4.35-5.78-9.34-.34-1-.68-1.36-1.57-1.36h-3.5c-1 0-1.2.47-1.2 1 0 .93 1.19 5.52 5.52 11.61 2.9 4.15 7 6.4 10.68 6.4 2.22 0 2.5-.5 2.5-1.36V33.5c0-1 .21-1.2.92-1.2.51 0 1.4.26 3.48 2.26 2.37 2.38 2.77 3.44 4.1 3.44H43c1 0 1.5-.5 1.21-1.49a15 15 0 00-3-4.1c-.82-1-2-2-2.41-2.52-.52-.67-.37-1 0-1.56.05 0 4.31-6 4.76-8.04z" fill="#fff"/></g></svg><svg height="28" width="28" viewBox="-4 -4 28 28" id="work_outline_20" x="176" y="28" xmlns="http://www.w3.org/2000/svg"><g fill="none" fill-rule="evenodd"><path d="M0 0h20v20H0z" opacity=".4"/><path d="M10.795 2c1.115 0 1.519.116 1.926.334s.727.538.945.945c.203.38.318.758.332 1.712L14 5.5h1.363c1.033 0 1.45.116 1.858.334.407.218.727.538.945.945s.334.825.334 1.858v1.8c0 .89-.093 1.214-.267 1.54a1.82 1.82 0 01-.731.742L17.5 14.25a3.25 3.25 0 01-3.066 3.245l-.184.005h-8.5a3.25 3.25 0 01-3.245-3.066L2.5 14.25v-1.532l-.134-.079a1.814 1.814 0 01-.599-.662c-.16-.301-.252-.6-.265-1.345L1.5 8.637c0-1.033.116-1.45.334-1.858.218-.407.538-.727.945-.945.378-.202.765-.317 1.645-.332L6 5.5v-.296c0-1.115.116-1.519.334-1.926s.538-.727.945-.945c.38-.203.758-.318 1.712-.332zm5.207 11L4 12.999v1.251a1.75 1.75 0 001.606 1.744L5.75 16h8.5a1.75 1.75 0 001.744-1.606L16 14.25zm-.469-6H4.467l-.309.01c-.357.018-.516.063-.672.147a.772.772 0 00-.33.33c-.104.194-.148.393-.155.98v2.118l.005.237c.008.2.024.302.052.377l.032.07a.319.319 0 00.14.141l.07.032c.114.042.284.058.764.058h11.872c.48 0 .65-.016.763-.058l.07-.032a.319.319 0 00.141-.14l.032-.07c.042-.114.058-.284.058-.764v-1.8c0-.72-.043-.937-.157-1.15a.772.772 0 00-.33-.33c-.194-.104-.393-.148-.98-.155zm-4.566-3.5H9.033l-.318.008c-.322.014-.49.045-.627.1l-.102.049a.772.772 0 00-.33.33l-.048.1c-.071.177-.102.404-.107.946L7.5 5.5h5v-.467l-.008-.318c-.014-.322-.045-.49-.1-.627l-.049-.102a.772.772 0 00-.33-.33l-.1-.048c-.177-.071-.404-.102-.946-.107z" fill="#99a2ad" fill-rule="nonzero"/></g></svg></svg>