<svg viewBox="0 0 104 104" xmlns="http://www.w3.org/2000/svg" xmlns:xlink="http://www.w3.org/1999/xlink"><svg height="52" width="52" viewBox="-4 -4 52 52" id="coins_outline_44" xmlns="http://www.w3.org/2000/svg"><g fill="none" fill-rule="evenodd"><path d="M8 8h28v28H8z" opacity=".1"/><path d="M22 32c-4.802 0-8.836-1.969-8.995-4.824L13 27V17l.005-.176C13.165 13.97 17.198 12 22 12s8.836 1.969 8.995 4.824L31 17v10c0 2.95-4.1 5-9 5zm0-10c-2.8 0-5.339-.67-7-1.794L14.999 22c.001 1.433 2.917 2.925 6.715 2.997L22 25c3.84 0 6.85-1.458 6.995-2.892L29 22l.001-1.794C27.34 21.33 24.801 22 22 22zm0-8c-3.937 0-7 1.532-7 3s3.063 3 7 3 7-1.532 7-3-3.063-3-7-3zm0 13c-2.8 0-5.339-.67-7-1.794V27l.005.108C15.15 28.542 18.16 30 22 30s6.85-1.458 6.995-2.892L29 27l.001-1.794C27.34 26.33 24.801 27 22 27z" fill="#fff" fill-rule="nonzero"/></g></svg><svg height="24" width="24" viewBox="-4 -4 24 24" id="done_16" x="52" y="52" xmlns="http://www.w3.org/2000/svg"><g fill="none"><path d="M0 0h16v16H0z"/><path d="M3 9l3 3 7-7" stroke="#939393" stroke-linecap="round" stroke-linejoin="round" stroke-width="1.5"/></g></svg><svg height="52" width="52" viewBox="-4 -4 52 52" id="music_outline_44" x="52" xmlns="http://www.w3.org/2000/svg"><g fill="none" fill-rule="evenodd"><path d="M8 8h28v28H8z" opacity=".1"/><path d="M10 10h24v24H10z" opacity=".4"/><path d="M30.937 13.848a3 3 0 01.056.406l.007.206v10.434c0 4.687-4.583 7.1-7.073 4.61-2.448-2.449-.159-6.919 4.373-7.07l.237-.004h.462v-4.701l-10 2.083.001 7.582c0 4.687-4.583 7.1-7.073 4.61-2.448-2.449-.159-6.919 4.373-7.07l.237-.004h.462L17 16.917c0-.858.065-1.338.253-1.812l.06-.142c.222-.496.56-.911 1-1.23.423-.306.842-.48 1.608-.653l.241-.052 7.226-1.505a3 3 0 013.549 2.325zM17 26.93h-.463c-3.014 0-4.339 2.516-3.196 3.659 1.115 1.114 3.534-.117 3.654-2.972l.005-.223zm12-2.5h-.463c-3.014 0-4.339 2.516-3.196 3.659 1.115 1.114 3.534-.117 3.654-2.972l.005-.223zm-1.088-10.967l-.116.018-7.398 1.542c-.376.083-.582.146-.735.222l-.063.034-.115.075c-.156.112-.268.25-.346.426-.094.209-.132.411-.138.961l-.001.176v.853l10-2.083V14.46a1 1 0 00-1.088-.997z" fill="#fff" fill-rule="nonzero"/></g></svg><svg height="52" width="52" viewBox="-4 -4 52 52" id="smile" y="52" xmlns="http://www.w3.org/2000/svg"><linearGradient id="ada" x1="0%" x2="100%" y1="0%" y2="100%"><stop offset="0" stop-color="#ffb73d"/><stop offset="1" stop-color="#ffa000"/></linearGradient><g fill="none" fill-rule="evenodd"><path d="M0 0h44v44H0z" fill="url(#ada)" fill-rule="nonzero"/><path d="M8 8h28v28H8z" opacity=".4"/><path d="M22 11c6.075 0 11 4.925 11 11s-4.925 11-11 11-11-4.925-11-11 4.925-11 11-11zm0 2a9 9 0 100 18 9 9 0 000-18zm-3.2 11.4c.751 1 1.925 1.6 3.2 1.6a3.992 3.992 0 003.199-1.598 1 1 0 011.598 1.202A5.991 5.991 0 0122 28c-1.91 0-3.674-.9-4.8-2.399a1 1 0 111.6-1.201zm-.3-5.9a1.5 1.5 0 110 3 1.5 1.5 0 010-3zm7 0a1.5 1.5 0 110 3 1.5 1.5 0 010-3z" fill="#fff" fill-rule="nonzero"/></g></svg></svg>