<svg viewBox="0 0 108 108" xmlns="http://www.w3.org/2000/svg" xmlns:xlink="http://www.w3.org/1999/xlink"><svg width="36" height="36" viewBox="-4 -4 36 36" id="coins_outline_28" xmlns="http://www.w3.org/2000/svg"><g fill="none" fill-rule="evenodd"><path d="M0 0h28v28H0z"/><path d="M23.995 19.178C23.831 22.31 19.351 24.5 14 24.5c-5.452 0-10-2.274-10-5.5V9l.005-.178C4.169 5.69 8.649 3.5 14 3.5c5.452 0 10 2.274 10 5.5v10zm-1.994-6.813C20.165 13.695 17.242 14.5 14 14.5c-3.242 0-6.164-.804-8-2.134V14c0 1.745 3.51 3.5 8 3.5s8-1.755 8-3.5zM14 5.5C9.51 5.5 6 7.255 6 9s3.51 3.5 8 3.5 8-1.755 8-3.5-3.51-3.5-8-3.5zm8.001 11.865C20.165 18.695 17.242 19.5 14 19.5c-3.242 0-6.164-.804-8-2.134V19l.005.116C6.157 20.822 9.611 22.5 14 22.5c4.49 0 8-1.755 8-3.5z" fill="#3F8AE0" fill-rule="nonzero"/></g></svg><svg width="36" height="36" viewBox="-4 -4 36 36" id="lock_outline_28" x="36" xmlns="http://www.w3.org/2000/svg"><g fill="none" fill-rule="evenodd"><path d="M0 0h28v28H0z"/><path d="M14 2a6 6 0 016 6l.002 2.023c.843.052 1.38.2 1.935.496.663.355 1.19.881 1.544 1.544.385.72.519 1.413.519 2.783v6.308c0 1.37-.134 2.063-.519 2.783a3.726 3.726 0 01-1.544 1.544c-.72.385-1.413.519-2.783.519H8.846c-1.37 0-2.063-.134-2.783-.519a3.726 3.726 0 01-1.544-1.544C4.134 23.217 4 22.524 4 21.154v-6.308c0-1.37.134-2.063.519-2.783a3.726 3.726 0 011.544-1.544c.555-.297 1.093-.444 1.936-.496L8 8a6 6 0 016-6zm5.154 10H8.846c-1.068 0-1.449.073-1.84.283a1.727 1.727 0 00-.723.723c-.21.391-.283.772-.283 1.84v6.308c0 1.068.073 1.449.283 1.84.168.314.409.555.723.723.391.21.772.283 1.84.283h10.308c1.068 0 1.449-.073 1.84-.283.314-.168.555-.409.723-.723.21-.391.283-.772.283-1.84v-6.308c0-1.068-.073-1.449-.283-1.84a1.726 1.726 0 00-.723-.723c-.391-.21-.772-.283-1.84-.283zM14 15a1 1 0 011 1v3a1 1 0 01-2 0v-3a1 1 0 011-1zm0-11a4 4 0 00-4 4v2h8V8a4 4 0 00-4-4z" fill="#3F8AE0" fill-rule="nonzero"/></g></svg><svg width="36" height="36" viewBox="-4 -4 36 36" id="money_transfer_outline_28" y="36" xmlns="http://www.w3.org/2000/svg"><g fill="none" fill-rule="evenodd"><path d="M0 0h28v28H0z"/><path d="M20.872 4c1.783 0 2.43.186 3.082.534.652.349 1.163.86 1.512 1.512.348.652.534 1.299.534 3.082v9.026l-.001.091v-3.228l-.006.1A1 1 0 0124 15v-3H4v5.436c0 .892.093 1.215.267 1.54.174.327.43.583.756.757.301.16.6.252 1.345.265l.196.002h16.022l-2.293-2.293a1 1 0 011.414-1.414l4 4a1 1 0 010 1.414l-4 4a1 1 0 01-1.414-1.414l2.298-2.299c-.135.004-.28.006-.437.006H7.128c-1.783 0-2.43-.186-3.082-.534a3.635 3.635 0 01-1.512-1.512C2.186 19.302 2 18.655 2 16.872V9.128c0-1.783.186-2.43.534-3.082a3.635 3.635 0 011.512-1.512C4.698 4.186 5.345 4 7.128 4h13.744zm.564 2H6.564c-.892 0-1.215.093-1.54.267a1.81 1.81 0 00-.757.756c-.16.301-.252.6-.265 1.345L4 8.564V10h20V8.564c0-.892-.093-1.215-.267-1.54a1.817 1.817 0 00-.756-.757c-.326-.174-.65-.267-1.54-.267z" fill="#3F8AE0" fill-rule="nonzero"/></g></svg><svg height="36" width="36" viewBox="-4 -4 36 36" id="notifications_outline_28" x="36" y="36" xmlns="http://www.w3.org/2000/svg"><g fill="none" fill-rule="evenodd"><path d="M0 0h28v28H0z"/><path d="M19.995 13.907L20 12.08c0-3.72-2.611-6.58-5.995-6.58C10.618 5.5 8 8.362 8 12.079v1.828c0 .928-.384 1.617-1.212 2.592a44.99 44.99 0 01-.28.328c-.76.88-1.008 1.298-1.008 1.761 0 .226.016.347.068.457.124.264.488.455 1.432.455h14c.914 0 1.286-.192 1.423-.46.059-.117.077-.241.077-.452 0-.463-.248-.88-1.009-1.76l-.282-.328c-.828-.976-1.214-1.665-1.214-2.593zM14.005 3.5C18.535 3.5 22 7.294 22 12.081l-.005 1.827c0 .307.2.663.739 1.297.067.08.13.154.27.314 1.07 1.239 1.496 1.955 1.496 3.07 0 .5-.057.89-.294 1.357C23.7 20.94 22.618 21.5 21 21.5h-2.601C17.73 23.766 16.212 25 14 25s-3.731-1.235-4.399-3.5H7c-1.665 0-2.758-.574-3.242-1.604-.21-.446-.258-.809-.258-1.308 0-1.113.425-1.83 1.493-3.068.139-.16.203-.235.27-.314.539-.635.737-.99.737-1.299V12.08C6 7.296 9.472 3.5 14.005 3.5zm2.274 18h-4.558C12.17 22.544 12.899 23 14 23s1.829-.457 2.28-1.5z" fill="#3f8ae0" fill-rule="nonzero"/></g></svg><svg width="36" height="36" viewBox="-4 -4 36 36" id="privacy_outline_28" x="72" xmlns="http://www.w3.org/2000/svg"><g fill="none" fill-rule="evenodd"><path d="M0 0h28v28H0z"/><path d="M24.442 12.058c.513.77.588 1.831.192 2.663l-2.679 5.625C20.435 23.539 16.54 26 12.998 26H12c-4.422 0-8-3.58-8-8.009v-7.863a2.746 2.746 0 013.5-2.642v-.732a2.75 2.75 0 013.571-2.629A2.749 2.749 0 0113.75 2c1.47 0 2.67 1.15 2.746 2.604A2.748 2.748 0 0120 7.254v4.264c1.299-1.278 3.357-1.087 4.442.54zM6.75 9.383a.746.746 0 00-.75.745v7.863A5.998 5.998 0 0012 24h.998c2.773 0 5.964-2.02 7.151-4.514l2.679-5.625a.787.787 0 00-.05-.694c-.428-.642-1.123-.65-1.55-.01l-2.177 3.267c-.576.864-1.051.726-1.051-.323V7.255a.748.748 0 00-.75-.755.746.746 0 00-.75.747v5.757c0 .55-.448.996-1 .996-.556 0-1-.446-1-.995V4.752a.749.749 0 10-1.5 0v8.253c0 .54-.448.995-1 .995-.556 0-1-.446-1-.997v-6.25A.756.756 0 0010.25 6a.75.75 0 00-.75.754v6.738c0 .551-.448 1.008-1 1.008-.556 0-1-.447-1-.999v-3.363a.751.751 0 00-.75-.755z" fill="#3F8AE0" fill-rule="nonzero"/></g></svg><svg width="36" height="36" viewBox="-4 -4 36 36" id="user_outline_28" x="72" y="36" xmlns="http://www.w3.org/2000/svg"><g fill="none" fill-rule="evenodd"><path d="M0 0h28v28H0z"/><path d="M17.5 8.5C17.5 6.566 15.934 5 14 5a3.499 3.499 0 00-3.5 3.5c0 1.934 1.566 3.5 3.5 3.5s3.5-1.566 3.5-3.5zm2 0c0 3.039-2.461 5.5-5.5 5.5a5.499 5.499 0 01-5.5-5.5C8.5 5.461 10.961 3 14 3s5.5 2.461 5.5 5.5zM7 20.643c0 .943-.08.857.456.857h13.588c.536 0 .456.086.456-.857 0-2.288-3.304-3.643-7.25-3.643S7 18.355 7 20.643zm-2 0C5 16.763 9.299 15 14.25 15s9.25 1.763 9.25 5.643c0 2.016-.781 2.857-2.456 2.857H7.456C5.78 23.5 5 22.66 5 20.643z" fill="#3F8AE0" fill-rule="nonzero"/></g></svg><svg width="36" height="36" viewBox="-4 -4 36 36" id="users_outline_28" y="72" xmlns="http://www.w3.org/2000/svg"><g fill="none" fill-rule="evenodd"><path d="M0 0h28v28H0z"/><path d="M9 15c3.997 0 7.5 1.542 7.5 4.929 0 1.774-.69 2.571-2.147 2.571H3.647c-1.458 0-2.147-.797-2.147-2.571C1.5 16.542 5.003 15 9 15zm10.5 0c3.997 0 7.5 1.542 7.5 4.929 0 1.774-.69 2.571-2.147 2.571H19a1 1 0 010-2h5.913a.83.83 0 01.042.002l.013.001.002-.015c.01-.081.024-.22.029-.427l.001-.132C25 18.095 22.513 17 19.5 17c-.428 0-.898.03-1.37.09a1 1 0 11-.256-1.983A12.87 12.87 0 0119.5 15zM3.531 20.503l-.014.002-.013.007-.001.01.037.036-.009-.055zm10.937 0l-.008.055.037-.036c.003-.008-.001-.014-.014-.017l-.015-.002zm10.5 0l-.008.055.037-.036c.003-.008-.001-.014-.014-.017l-.015-.002zM9 17c-3.013 0-5.5 1.095-5.5 2.929 0 .28.017.462.03.56l.001.014.014-.001.019-.001h10.891l.013.002.002-.015c.013-.097.03-.28.03-.56C14.5 18.096 12.013 17 9 17zM19.5 5a4.25 4.25 0 014.25 4.25 4.25 4.25 0 01-4.25 4.25 4.25 4.25 0 01-4.25-4.25A4.25 4.25 0 0119.5 5zM9 5a4.25 4.25 0 014.25 4.25A4.25 4.25 0 019 13.5a4.25 4.25 0 01-4.25-4.25A4.25 4.25 0 019 5zm10.5 2a2.25 2.25 0 100 4.5 2.25 2.25 0 100-4.5zM9 7a2.25 2.25 0 100 4.5A2.25 2.25 0 109 7z" fill="#3F8AE0" fill-rule="nonzero"/></g></svg></svg>