<svg viewBox="0 0 184 184" xmlns="http://www.w3.org/2000/svg" xmlns:xlink="http://www.w3.org/1999/xlink"><svg height="64" width="64" viewBox="-4 -4 64 64" id="archive_outline_56" xmlns="http://www.w3.org/2000/svg"><g fill="none" fill-rule="evenodd"><path d="M0 0h56v56H0z"/><path d="M17.233 17.5H19.5a1.5 1.5 0 010 3H13a1.5 1.5 0 01-1.485-1.712l1-7a1.5 1.5 0 112.97.424l-.464 3.247c6.859-6.444 17.628-6.333 24.31.349 6.813 6.813 6.794 17.876-.04 24.71-6.833 6.832-17.896 6.852-24.71.038a1.5 1.5 0 012.122-2.121c5.64 5.64 14.804 5.624 20.467-.04 5.663-5.663 5.68-14.826.04-20.466-5.48-5.48-14.287-5.62-19.977-.429zM28 29.128l5.98 2.678a1.5 1.5 0 11-1.225 2.738l-6.868-3.075A1.5 1.5 0 0125 30.1V22a1.5 1.5 0 013 0z" fill="#99a2ad" fill-rule="nonzero"/></g></svg><svg width="64" height="64" viewBox="-4 -4 64 64" id="bomb_outline_56" x="64" xmlns="http://www.w3.org/2000/svg"><g fill="none" fill-rule="evenodd"><path d="M0 0h56v56H0z"/><path d="M40.533 15.467c.558.558.589 1.445.094 2.044l-.1.109-2.415 2.417c6.262 7.361 5.89 18.447-1.095 25.433-7.349 7.349-19.236 7.377-26.55.063s-7.286-19.201.063-26.55c6.986-6.986 18.073-7.357 25.434-1.094l2.416-2.417a1.522 1.522 0 012.153-.005zm-5.584 5.584c-6.128-6.128-16.095-6.096-22.263.071-6.167 6.168-6.2 16.135-.071 22.263 6.128 6.128 16.095 6.096 22.263-.071 6.167-6.168 6.2-16.135.071-22.263zm16.999-2.08a1.519 1.519 0 01-1.717 1.106l-.143-.032-4.792-1.283a1.519 1.519 0 01.643-2.965l.144.03 4.791 1.285a1.52 1.52 0 011.074 1.86zM37.028 4.053a1.519 1.519 0 011.816.934l.044.14 1.284 4.792.031.143a1.519 1.519 0 01-2.92.782l-.045-.14-1.283-4.791-.032-.143a1.519 1.519 0 011.105-1.717zm12.095 2.825a1.52 1.52 0 01.099 2.039l-.099.108-3.507 3.508a1.519 1.519 0 01-2.246-2.04l.098-.108 3.508-3.507a1.519 1.519 0 012.147 0z" fill="#FFF"/></g></svg><svg height="24" width="20" viewBox="-4 -4 20 24" id="chevron_16" y="160" xmlns="http://www.w3.org/2000/svg"><g fill="none" fill-rule="evenodd"><path d="M0 0h12v16H0z"/><path d="M7.227 8L3.864 4.636a.9.9 0 111.272-1.272l4 4a.9.9 0 010 1.272l-4 4a.9.9 0 11-1.272-1.272z" fill="#fff" fill-rule="nonzero"/></g></svg><svg height="32" width="32" viewBox="-4 -4 32 32" id="error_24" y="128" xmlns="http://www.w3.org/2000/svg"><g fill="none" fill-rule="evenodd"><circle cx="12" cy="12" r="11" stroke="#fff" stroke-width="2"/><path d="M4 4h16v16H4z" opacity=".4"/><path d="M12 18.667A1.333 1.333 0 1112 16a1.333 1.333 0 010 2.667zm-.324-13.334h.648a1 1 0 011 1.037l-.266 7.276a1.059 1.059 0 01-2.116 0l-.265-7.276a1 1 0 01.999-1.037z" fill="#fff" fill-rule="nonzero"/></g></svg><svg height="64" width="64" viewBox="-4 -4 64 64" id="hide_outline_56" y="64" xmlns="http://www.w3.org/2000/svg"><g fill="none"><path d="M0 0h56v56H0z"/><path d="M12.44 10.44a1.5 1.5 0 012.12 0l31 31a1.5 1.5 0 01-2.12 2.12l-2.515-2.513C37.03 43.573 32.652 45 28 45c-6.256 0-12.004-2.583-16.639-6.832C7.644 34.761 5 30.484 5 28c0-3.35 4.362-9.256 9.932-12.947l-2.493-2.492a1.5 1.5 0 010-2.122zm4.662 6.784C12.052 20.387 8 25.732 8 28c0 1.454 2.232 5.063 5.389 7.957C17.505 39.73 22.556 42 28 42c3.828 0 7.46-1.118 10.75-3.129l-4.446-4.446a9 9 0 01-12.728-12.728zM28 11c6.256 0 12.004 2.583 16.639 6.832C48.356 21.239 51 25.516 51 28c0 1.99-1.714 5.171-4.331 8.11a1.5 1.5 0 01-2.24-1.996C46.6 31.676 48 29.078 48 28c0-1.454-2.232-5.063-5.389-7.957C38.495 16.27 33.444 14 28 14c-1.443 0-2.86.159-4.248.468a1.5 1.5 0 11-.652-2.928c1.6-.356 3.236-.54 4.9-.54zm-4.302 12.819a6 6 0 008.484 8.485zm5.93-3.295a1.5 1.5 0 011.975-.774 9.028 9.028 0 014.65 4.651 1.5 1.5 0 01-2.75 1.2 6.028 6.028 0 00-3.102-3.102 1.5 1.5 0 01-.774-1.975z" fill="#99a2ad"/></g></svg><svg width="56" height="56" viewBox="-4 -4 56 56" id="like_outline_shadow_48" x="64" y="64" xmlns="http://www.w3.org/2000/svg"><g fill="none" fill-rule="evenodd"><path opacity=".1" d="M0 0h48v48H0z"/><path d="M35.75 21.4c0 3.68-1.42 5.53-7.59 10.33l-2.78 2.16a2.25 2.25 0 01-2.76 0l-2.78-2.16c-6.17-4.8-7.59-6.65-7.59-10.32a6.76 6.76 0 016.78-6.78c1.86 0 3.52.8 4.97 2.36a6.66 6.66 0 014.97-2.36 6.76 6.76 0 016.78 6.78zm-2.5 0a4.26 4.26 0 00-4.28-4.27c-1.45 0-2.74.84-3.94 2.58L24 21.19l-1.03-1.48c-1.2-1.74-2.5-2.58-3.94-2.58a4.26 4.26 0 00-4.28 4.28c0 2.72 1.17 4.1 6.62 8.35L24 31.8l2.63-2.04c5.45-4.25 6.62-5.63 6.62-8.35z" stroke-opacity=".12" stroke="#000" stroke-width=".5" fill="#FFF" fill-rule="nonzero"/></g></svg><svg width="56" height="56" viewBox="-4 -4 56 56" id="like_shadow_48" x="128" xmlns="http://www.w3.org/2000/svg"><g fill="none" fill-rule="evenodd"><path opacity=".1" d="M0 0h48v48H0z"/><path d="M35.5 21.4c0 3.32-1.26 5.17-6.18 9.1l-.65.51-3.44 2.68a2 2 0 01-2.46 0L20 31.53c-6.1-4.75-7.49-6.56-7.49-10.12a6.5 6.5 0 016.53-6.53c1.78 0 3.38.77 4.79 2.28 1.78-1.51 3.38-2.28 5.15-2.28a6.5 6.5 0 016.53 6.53z" stroke-opacity=".12" stroke="#000" stroke-width=".5" fill="#FFF" fill-rule="nonzero"/></g></svg><svg fill="none" viewBox="-4 -4 56 56" width="56" height="56" id="services_48" x="128" y="56" xmlns="http://www.w3.org/2000/svg"><path fill="#fff" d="M19.12 25.72c1.06 0 1.62.1 2.2.42.54.29.97.72 1.26 1.26.31.58.42 1.14.42 2.2v2.24c0 1.06-.1 1.62-.42 2.2-.29.54-.72.97-1.26 1.26-.58.31-1.14.42-2.2.42h-2.24c-1.06 0-1.62-.1-2.2-.42a3.05 3.05 0 01-1.26-1.26 4.24 4.24 0 01-.42-2.2V29.6c0-1.06.1-1.62.42-2.2.29-.54.72-.97 1.26-1.26a4.24 4.24 0 012.2-.42h2.24zm12 0c1.06 0 1.62.1 2.2.42.54.29.97.72 1.26 1.26.31.58.42 1.14.42 2.2v2.24c0 1.06-.1 1.62-.42 2.2-.29.54-.72.97-1.26 1.26-.58.31-1.14.42-2.2.42h-2.24c-1.06 0-1.62-.1-2.2-.42a3.05 3.05 0 01-1.26-1.26 4.24 4.24 0 01-.42-2.2V29.6c0-1.06.1-1.62.42-2.2.29-.54.72-.97 1.26-1.26a4.24 4.24 0 012.2-.42h2.24zm-12 2h-2.24c-.76 0-1 .05-1.26.18-.18.1-.34.25-.44.44-.13.26-.18.5-.18 1.26v2.24c0 .76.05 1 .18 1.26.1.19.25.34.44.44.26.13.5.18 1.26.18h2.24c.76 0 1-.05 1.26-.18.19-.1.34-.25.44-.44.13-.25.18-.5.18-1.26V29.6c0-.76-.05-1-.18-1.26-.1-.18-.25-.34-.44-.44-.25-.13-.5-.18-1.26-.18zm12 0h-2.24c-.76 0-1 .05-1.26.18-.18.1-.34.25-.44.44-.13.26-.18.5-.18 1.26v2.24c0 .76.05 1 .18 1.26.1.19.25.34.44.44.25.13.5.18 1.26.18h2.24c.76 0 1-.05 1.26-.18.19-.1.34-.25.44-.44.13-.25.18-.5.18-1.26V29.6c0-.76-.05-1-.18-1.26-.1-.18-.25-.34-.44-.44-.26-.13-.5-.18-1.26-.18zm-.23-14.59c.63.2 1.1.51 1.86 1.27l1.57 1.57a4.23 4.23 0 011.27 1.86c.17.58.17 1.2 0 1.78-.2.63-.51 1.1-1.27 1.86l-1.57 1.57a4.23 4.23 0 01-1.86 1.27c-.58.18-1.2.18-1.78 0a4.23 4.23 0 01-1.86-1.27l-1.57-1.57a4.23 4.23 0 01-1.27-1.86 3.04 3.04 0 010-1.78c.2-.63.51-1.1 1.27-1.86l1.57-1.57a4.23 4.23 0 011.86-1.27c.58-.17 1.2-.17 1.78 0zm-11.77.59c1.06 0 1.62.1 2.2.42.54.29.97.72 1.26 1.26.31.58.42 1.14.42 2.2v2.24c0 1.06-.1 1.62-.42 2.2-.29.54-.72.97-1.26 1.26-.58.31-1.14.42-2.2.42h-2.24c-1.06 0-1.62-.1-2.2-.42a3.05 3.05 0 01-1.26-1.26 4.24 4.24 0 01-.42-2.2V17.6c0-1.06.1-1.62.42-2.2.29-.54.72-.97 1.26-1.26a4.24 4.24 0 012.2-.42h2.24zm10.57 1.33c-.28.08-.48.22-1.02.76l-1.58 1.58c-.54.54-.68.75-.76 1.02-.07.2-.07.42 0 .62.08.28.22.48.76 1.02l1.58 1.58c.54.54.74.68 1.02.76.2.07.41.07.62 0 .28-.08.48-.22 1.02-.76l1.58-1.58c.54-.54.68-.74.76-1.02.07-.2.07-.42 0-.62-.08-.27-.22-.48-.76-1.02l-1.58-1.58c-.54-.54-.74-.68-1.02-.76a.941.941 0 00-.62 0zm-10.57.67h-2.24c-.76 0-1 .05-1.26.18-.18.1-.34.25-.44.44-.13.26-.18.5-.18 1.27v2.23c0 .76.05 1 .18 1.26.1.2.25.34.44.44.26.13.5.18 1.26.18h2.24c.76 0 1-.05 1.26-.18.19-.1.34-.25.44-.44.13-.25.18-.5.18-1.26V17.6c0-.76-.05-1-.18-1.26-.1-.18-.25-.34-.44-.44-.26-.13-.5-.18-1.27-.18z"/></svg><svg width="26" height="22" viewBox="-4 -4 26 22" id="story_like" x="32" y="128" xmlns="http://www.w3.org/2000/svg"><path fill="#FFF" fill-rule="evenodd" d="M12.694 0C15.348 0 17.5 2.122 17.5 4.74c0 2.63-1.067 3.947-5.55 7.386l-2.04 1.566a1.5 1.5 0 01-1.82 0l-2.04-1.566C1.566 8.687.5 7.371.5 4.741.5 2.122 2.652 0 5.306 0 6.723 0 7.952.816 9 2.374 10.048.816 11.277 0 12.694 0z"/></svg></svg>