<svg height="24" viewBox="0 0 24 24" width="24" xmlns="http://www.w3.org/2000/svg"><g fill="none" fill-rule="evenodd"><path d="m0 0h24v24h-24z" opacity=".1"/><path d="m19.25 7.5c0-1.658-1.342-3-3-3s-3 1.342-3 3 1.342 3 3 3 3-1.342 3-3zm1.5 0c0 2.486-2.014 4.5-4.5 4.5a4.499 4.499 0 0 1 -4.5-4.5c0-2.486 2.014-4.5 4.5-4.5s4.5 2.014 4.5 4.5zm-10.75 10.183c0 .85-.026.822.485.822h11.53c.511 0 .485.028.485-.822 0-2.012-2.853-3.178-6.25-3.178s-6.25 1.165-6.25 3.178zm-4.5-7.683h3.25a.75.75 0 1 1 0 1.5h-3.25v3.25a.75.75 0 1 1 -1.5 0v-3.25h-3.25a.75.75 0 1 1 0-1.5h3.25v-3.25a.75.75 0 0 1 1.5 0zm3 7.683c0-3.207 3.598-4.678 7.75-4.678s7.75 1.47 7.75 4.678c0 1.655-.62 2.322-1.985 2.322h-11.53c-1.364 0-1.985-.667-1.985-2.322z" fill="#5181b8" fill-rule="nonzero"/></g></svg>