<svg viewBox="0 0 208 156" xmlns="http://www.w3.org/2000/svg" xmlns:xlink="http://www.w3.org/1999/xlink"><svg height="52" width="52" viewBox="-4 -4 52 52" id="delete_outline_44" xmlns="http://www.w3.org/2000/svg"><g fill="none" fill-rule="evenodd"><path d="M0 0h44v44H0z"/><path d="M35.046 15l.11.004a.951.951 0 01.844.938l-.004.112-1.853 19c-.269 1.516-.517 2.228-1.004 2.947a4.335 4.335 0 01-1.757 1.51c-.721.341-1.4.471-2.7.487l-.29.002H15.608c-1.493 0-2.216-.123-2.99-.488a4.335 4.335 0 01-1.756-1.51c-.457-.675-.703-1.343-.963-2.74l-.052-.29-1.842-18.918c-.049-.529.328-1 .84-1.05a.938.938 0 011.002.756l.016.112 1.83 18.836c.226 1.266.387 1.73.699 2.19.26.383.591.668 1.003.862.462.218.903.303 1.974.313l.24.001h12.785c1.247 0 1.718-.08 2.213-.314.412-.194.744-.48 1.003-.863.291-.429.451-.861.645-1.88l.042-.227 1.842-18.918a.95.95 0 01.802-.863zM18 16a1 1 0 011 1v13a1 1 0 01-2 0V17a1 1 0 011-1zm8 0a1 1 0 011 1v13a1 1 0 01-2 0V17a1 1 0 011-1zM7 12a1 1 0 010-2h7V8.128c0-1.783.186-2.43.534-3.082s.86-1.163 1.512-1.512C16.698 3.186 17.345 3 19.128 3h5.744c1.783 0 2.43.186 3.082.534.652.349 1.163.86 1.512 1.512S30 6.345 30 8.128V10h7a1 1 0 010 2H14zm18.11-7h-5.982c-1.324 0-1.727.078-2.138.298-.304.162-.53.388-.692.692-.206.385-.288.764-.297 1.9L16 10h12V8.128c0-1.324-.078-1.727-.298-2.138a1.635 1.635 0 00-.692-.692c-.385-.206-.764-.288-1.9-.297z" fill="#828a99" fill-rule="nonzero"/></g></svg><svg height="52" width="52" viewBox="-4 -4 52 52" id="delete_outline_grey_44" x="52" xmlns="http://www.w3.org/2000/svg"><g fill="none" fill-rule="evenodd"><path d="M0 0h44v44H0z"/><path d="M35.046 15l.11.004a.951.951 0 01.844.938l-.004.112-1.853 19c-.269 1.516-.517 2.228-1.004 2.947a4.335 4.335 0 01-1.757 1.51c-.721.341-1.4.471-2.7.487l-.29.002H15.608c-1.493 0-2.216-.123-2.99-.488a4.335 4.335 0 01-1.756-1.51c-.457-.675-.703-1.343-.963-2.74l-.052-.29-1.842-18.918c-.049-.529.328-1 .84-1.05a.938.938 0 011.002.756l.016.112 1.83 18.836c.226 1.266.387 1.73.699 2.19.26.383.591.668 1.003.862.462.218.903.303 1.974.313l.24.001h12.785c1.247 0 1.718-.08 2.213-.314.412-.194.744-.48 1.003-.863.291-.429.451-.861.645-1.88l.042-.227 1.842-18.918a.95.95 0 01.802-.863zM18 16a1 1 0 011 1v13a1 1 0 01-2 0V17a1 1 0 011-1zm8 0a1 1 0 011 1v13a1 1 0 01-2 0V17a1 1 0 011-1zM7 12a1 1 0 010-2h7V8.128c0-1.783.186-2.43.534-3.082s.86-1.163 1.512-1.512C16.698 3.186 17.345 3 19.128 3h5.744c1.783 0 2.43.186 3.082.534.652.349 1.163.86 1.512 1.512S30 6.345 30 8.128V10h7a1 1 0 010 2H14zm18.11-7h-5.982c-1.324 0-1.727.078-2.138.298-.304.162-.53.388-.692.692-.206.385-.288.764-.297 1.9L16 10h12V8.128c0-1.324-.078-1.727-.298-2.138a1.635 1.635 0 00-.692-.692c-.385-.206-.764-.288-1.9-.297z" fill="#939393" fill-rule="nonzero"/></g></svg><svg height="52" width="52" viewBox="-4 -4 52 52" id="do_not_disturb_outline_44" y="52" xmlns="http://www.w3.org/2000/svg"><g fill="none" fill-rule="evenodd"><path d="M0 0h44v44H0z"/><path d="M22 4c9.941 0 18 8.059 18 18s-8.059 18-18 18c-4.647 0-8.882-1.76-12.075-4.651l-.008.007-.166-.166c-.325-.302-.639-.616-.941-.941l-.166-.166A17.994 17.994 0 014 22c0-9.941 8.059-18 18-18zm12.074 7.2L11.2 34.073A16.14 16.14 0 0022 38.2c8.947 0 16.2-7.253 16.2-16.2 0-4.15-1.56-7.935-4.126-10.8zM22 5.8C13.053 5.8 5.8 13.053 5.8 22c0 4.15 1.56 7.935 4.126 10.8L32.8 9.927A16.14 16.14 0 0022 5.8z" fill="#828a99" fill-rule="nonzero"/></g></svg><svg height="52" width="52" viewBox="-4 -4 52 52" id="do_not_disturb_outline_grey_44" x="52" y="52" xmlns="http://www.w3.org/2000/svg"><g fill="none" fill-rule="evenodd"><path d="M0 0h44v44H0z"/><path d="M22 4c9.941 0 18 8.059 18 18s-8.059 18-18 18c-4.647 0-8.882-1.76-12.075-4.651l-.008.007-.166-.166c-.325-.302-.639-.616-.941-.941l-.166-.166A17.994 17.994 0 014 22c0-9.941 8.059-18 18-18zm12.074 7.2L11.2 34.073A16.14 16.14 0 0022 38.2c8.947 0 16.2-7.253 16.2-16.2 0-4.15-1.56-7.935-4.126-10.8zM22 5.8C13.053 5.8 5.8 13.053 5.8 22c0 4.15 1.56 7.935 4.126 10.8L32.8 9.927A16.14 16.14 0 0022 5.8z" fill="#939393" fill-rule="nonzero"/></g></svg><svg height="52" width="52" viewBox="-4 -4 52 52" id="hide_outline_44" x="104" xmlns="http://www.w3.org/2000/svg"><g fill="none" fill-rule="evenodd"><path d="M0 0h44v44H0z"/><path d="M6.613 5.21l.094.083 10.388 10.386A8 8 0 0128.32 26.905l9.5 9.5a1 1 0 01-1.32 1.498l-.093-.083-4.335-4.335C29.068 35.108 25.66 36 22 36 11.876 36 3 28.263 3 22c0-3.22 2.906-7.526 7.169-10.417L5.293 6.707a1 1 0 011.32-1.497zm9.066 11.885l-4.068-4.069C7.679 15.576 5 19.45 5 22c0 1.97 1.723 4.97 4.479 7.371C12.804 32.27 17.148 34 22 34c3.106 0 6.004-.706 8.588-1.998l-3.682-3.682A8 8 0 0115.68 17.096l-4.069-4.07zM22 8c10.124 0 19 7.737 19 14 0 2.842-1.827 5.987-4.769 8.575l-1.441-1.442C37.388 26.773 39 23.906 39 22c0-1.97-1.723-4.97-4.479-7.371C31.196 11.73 26.852 10 22 10c-1.941 0-3.801.277-5.547.795l-1.544-1.542C17.124 8.463 19.524 8 22 8zm-4.891 10.524a6 6 0 008.138 8.522l.23-.155zM22 16c-1.295 0-2.495.41-3.476 1.109l8.367 8.368A6 6 0 0022 16z" fill="#fff" fill-rule="nonzero"/></g></svg><svg height="52" width="52" viewBox="-4 -4 52 52" id="info_outline_44" x="104" y="52" xmlns="http://www.w3.org/2000/svg"><g fill="none" fill-rule="evenodd"><path d="M0 0h44v44H0z"/><path d="M22 40c9.941 0 18-8.059 18-18S31.941 4 22 4 4 12.059 4 22s8.059 18 18 18zm0-1.8c-8.947 0-16.2-7.253-16.2-16.2S13.053 5.8 22 5.8 38.2 13.053 38.2 22 30.947 38.2 22 38.2zM22 24a1 1 0 001-1v-9a1 1 0 00-2 0v9a1 1 0 001 1zm0 8a2 2 0 100-4 2 2 0 000 4z" fill="#828a99" fill-rule="nonzero"/></g></svg><svg height="52" width="52" viewBox="-4 -4 52 52" id="info_outline_grey_44" y="104" xmlns="http://www.w3.org/2000/svg"><g fill="none" fill-rule="evenodd"><path d="M0 0h44v44H0z"/><path d="M22 40c9.941 0 18-8.059 18-18S31.941 4 22 4 4 12.059 4 22s8.059 18 18 18zm0-1.8c-8.947 0-16.2-7.253-16.2-16.2S13.053 5.8 22 5.8 38.2 13.053 38.2 22 30.947 38.2 22 38.2zM22 24a1 1 0 001-1v-9a1 1 0 00-2 0v9a1 1 0 001 1zm0 8a2 2 0 100-4 2 2 0 000 4z" fill="#939393" fill-rule="nonzero"/></g></svg><svg height="52" width="52" viewBox="-4 -4 52 52" id="lock_outline_44" x="52" y="104" xmlns="http://www.w3.org/2000/svg"><g fill="none" fill-rule="evenodd"><path d="M0 0h44v44H0z"/><path d="M14.41 15h15.18c2.23 0 3.037.232 3.852.668a4.543 4.543 0 011.89 1.89c.436.815.668 1.623.668 3.852v9.18c0 2.23-.232 3.037-.668 3.852a4.543 4.543 0 01-1.89 1.89c-.815.436-1.623.668-3.852.668H14.41c-2.23 0-3.037-.232-3.852-.668a4.543 4.543 0 01-1.89-1.89C8.232 33.627 8 32.82 8 30.59v-9.18c0-2.23.232-3.037.668-3.852a4.543 4.543 0 011.89-1.89c.815-.436 1.623-.668 3.852-.668zM22 4a7 7 0 017 7v4H15v-4a7 7 0 017-7z" stroke="#828a99" stroke-width="2"/><g fill="#828a99"><circle cx="22" cy="24" r="3"/><rect height="6" rx="1" width="2" x="21" y="25"/></g></g></svg><svg height="52" width="52" viewBox="-4 -4 52 52" id="lock_outline_grey_44" x="104" y="104" xmlns="http://www.w3.org/2000/svg"><g fill="none" fill-rule="evenodd"><path d="M0 0h44v44H0z"/><path d="M14.41 15h15.18c2.23 0 3.037.232 3.852.668a4.543 4.543 0 011.89 1.89c.436.815.668 1.623.668 3.852v9.18c0 2.23-.232 3.037-.668 3.852a4.543 4.543 0 01-1.89 1.89c-.815.436-1.623.668-3.852.668H14.41c-2.23 0-3.037-.232-3.852-.668a4.543 4.543 0 01-1.89-1.89C8.232 33.627 8 32.82 8 30.59v-9.18c0-2.23.232-3.037.668-3.852a4.543 4.543 0 011.89-1.89c.815-.436 1.623-.668 3.852-.668zM22 4a7 7 0 017 7v4H15v-4a7 7 0 017-7z" stroke="#939393" stroke-width="2"/><g fill="#939393"><circle cx="22" cy="24" r="3"/><rect height="6" rx="1" width="2" x="21" y="25"/></g></g></svg><svg height="52" width="52" viewBox="-4 -4 52 52" id="recent_outline_44" x="156" xmlns="http://www.w3.org/2000/svg"><g fill="none" fill-rule="evenodd"><path d="M0 0h44v44H0z"/><path d="M22 40c9.941 0 18-8.059 18-18S31.941 4 22 4 4 12.059 4 22s8.059 18 18 18zm0-1.8c-8.947 0-16.2-7.253-16.2-16.2S13.053 5.8 22 5.8 38.2 13.053 38.2 22 30.947 38.2 22 38.2z" fill="#fff" fill-rule="nonzero"/><path d="M22 12v10m5 3l-5-3" stroke="#fff" stroke-linecap="round" stroke-linejoin="round" stroke-width="2"/></g></svg><svg height="52" width="52" viewBox="-4 -4 52 52" id="recent_outline_grey_44" x="156" y="52" xmlns="http://www.w3.org/2000/svg"><g fill="none" fill-rule="evenodd"><path d="M0 0h44v44H0z"/><path d="M22 40c9.941 0 18-8.059 18-18S31.941 4 22 4 4 12.059 4 22s8.059 18 18 18zm0-1.8c-8.947 0-16.2-7.253-16.2-16.2S13.053 5.8 22 5.8 38.2 13.053 38.2 22 30.947 38.2 22 38.2z" fill="#828a99" fill-rule="nonzero"/><path d="M22 12v10m5 3l-5-3" stroke="#828a99" stroke-linecap="round" stroke-linejoin="round" stroke-width="2"/></g></svg></svg>