<svg viewBox="0 0 278 245" xmlns="http://www.w3.org/2000/svg" xmlns:xlink="http://www.w3.org/1999/xlink"><svg height="32" width="32" viewBox="-4 -4 32 32" id="article_24" x="72" y="96" xmlns="http://www.w3.org/2000/svg"><g fill="none" fill-rule="evenodd"><path d="M0 0h24v24H0z"/><path d="M20 11a1 1 0 011 1v.5a1 1 0 01-1 1H4a1 1 0 01-1-1V12a1 1 0 011-1zm0-5.5a1 1 0 011 1V7a1 1 0 01-1 1H4a1 1 0 01-1-1v-.5a1 1 0 011-1zM4 19a1 1 0 01-1-1v-.5a1 1 0 011-1h9a1 1 0 011 1v.5a1 1 0 01-1 1z" fill="#99a2ad" fill-rule="nonzero"/></g></svg><svg height="32" width="32" viewBox="-4 -4 32 32" id="attach_24" x="132" xmlns="http://www.w3.org/2000/svg"><path d="M20.03 15.028l-5.386 5.23a6.6 6.6 0 01-9.265-.066 6.687 6.687 0 01.022-9.48l8.066-7.99a4.486 4.486 0 016.372.057 4.585 4.585 0 01-.044 6.441l-8.13 8.129a2.336 2.336 0 01-3.129.155l-.133-.11a2.094 2.094 0 01-.172-3.082l5.467-5.602" fill="none" stroke="#acb1b9" stroke-linecap="round" stroke-linejoin="round" stroke-width="1.8"/></svg><svg width="32" height="32" viewBox="-4 -4 32 32" id="camera-24" x="132" y="32" xmlns="http://www.w3.org/2000/svg"><g fill="none" fill-rule="evenodd"><path opacity=".4" d="M0 0h24v24H0z"/><path d="M9.629 3.5h4.742c.69 0 1.094.2 1.49.666l.718.888c.364.45 1.105.946 1.785.946h.454C21 6 22 7.333 22 9.556v6.888C22 18.408 20.372 20 18.364 20H5.636C3.628 20 2 18.408 2 16.444V9.556C2 7.333 3 6 5.182 6h.454c.68 0 1.42-.497 1.785-.946.363-.448.697-.864.718-.888.396-.465.8-.666 1.49-.666zM7 12.5c0 2.76 2.24 5 5 5s5-2.24 5-5-2.24-5-5-5-5 2.24-5 5zm1.6 0a3.4 3.4 0 116.8 0 3.4 3.4 0 01-6.8 0z" fill="#AAAEB3" fill-rule="nonzero"/></g></svg><svg width="32" height="32" viewBox="-4 -4 32 32" id="camera_outline_24" x="132" y="64" xmlns="http://www.w3.org/2000/svg"><g fill="none" fill-rule="evenodd"><path d="M0 0h24v24H0z"/><path d="M14.253 3c.903 0 1.544.29 2.101.947.009.01.472.59.696.867.077.096.431.186.995.186h.432C20.798 5 22.4 6.664 22.4 9.225v6.414c0 2.31-2.217 4.361-4.786 4.361H6.386C3.817 20 1.6 17.95 1.6 15.639V9.225C1.6 6.665 3.202 5 5.523 5h.432c.564 0 .918-.09.995-.186.224-.277.687-.857.696-.867C8.203 3.291 8.844 3 9.747 3h4.506zm0 1.8H9.747c-.38 0-.517.062-.73.313.013-.014-.425.532-.668.833-.525.65-1.326.854-2.394.854h-.432C4.212 6.8 3.4 7.643 3.4 9.225v6.414c0 1.283 1.381 2.561 2.986 2.561h11.228c1.605 0 2.986-1.278 2.986-2.561V9.225c0-1.582-.812-2.425-2.123-2.425h-.432c-1.068 0-1.87-.205-2.394-.854-.243-.3-.68-.847-.669-.833-.212-.25-.35-.313-.73-.313zM12 7.7a4.4 4.4 0 110 8.8 4.4 4.4 0 010-8.8zm0 1.8a2.6 2.6 0 100 5.2 2.6 2.6 0 000-5.2z" fill="#99A2AD" fill-rule="nonzero"/></g></svg><svg width="32" height="32" viewBox="-4 -4 32 32" id="camera_outline_active_24" x="132" y="96" xmlns="http://www.w3.org/2000/svg"><g fill="none" fill-rule="evenodd"><path d="M0 0h24v24H0z"/><path d="M14.253 3c.903 0 1.544.29 2.101.947.009.01.472.59.696.867.077.096.431.186.995.186h.432C20.798 5 22.4 6.664 22.4 9.225v6.414c0 2.31-2.217 4.361-4.786 4.361H6.386C3.817 20 1.6 17.95 1.6 15.639V9.225C1.6 6.665 3.202 5 5.523 5h.432c.564 0 .918-.09.995-.186.224-.277.687-.857.696-.867C8.203 3.291 8.844 3 9.747 3h4.506zm0 1.8H9.747c-.38 0-.517.062-.73.313.013-.014-.425.532-.668.833-.525.65-1.326.854-2.394.854h-.432C4.212 6.8 3.4 7.643 3.4 9.225v6.414c0 1.283 1.381 2.561 2.986 2.561h11.228c1.605 0 2.986-1.278 2.986-2.561V9.225c0-1.582-.812-2.425-2.123-2.425h-.432c-1.068 0-1.87-.205-2.394-.854-.243-.3-.68-.847-.669-.833-.212-.25-.35-.313-.73-.313zM12 7.7a4.4 4.4 0 110 8.8 4.4 4.4 0 010-8.8zm0 1.8a2.6 2.6 0 100 5.2 2.6 2.6 0 000-5.2z" fill="#3F8AE0" fill-rule="nonzero"/></g></svg><svg height="24" width="24" viewBox="-4 -4 24 24" id="cancel_16" x="228" y="156" xmlns="http://www.w3.org/2000/svg"><g fill="none" fill-rule="evenodd"><path d="M0 0h16v16H0z"/><path d="M12.736 3.264a.9.9 0 010 1.272L9.273 8l3.463 3.464a.9.9 0 01.08 1.18l-.08.092a.9.9 0 01-1.272 0L8 9.273l-3.464 3.463a.9.9 0 11-1.272-1.272L6.727 8 3.264 4.536a.9.9 0 01-.08-1.18l.08-.092a.9.9 0 011.272 0L8 6.727l3.464-3.463a.9.9 0 011.272 0z" fill="#3f8ae0" fill-rule="nonzero"/></g></svg><svg width="18" height="18" viewBox="-4 -4 18 18" id="close-10" x="260" xmlns="http://www.w3.org/2000/svg"><g fill="none" fill-rule="evenodd"><path d="M0 0h10v10H0z"/><path d="M.727 8.155A.742.742 0 00.71 9.21l.08.08a.733.733 0 001.055-.017L5 6.019l3.155 3.254c.291.3.768.304 1.055.017l.08-.08a.733.733 0 00-.017-1.055L6.019 5l3.254-3.155A.742.742 0 009.29.79L9.21.71a.733.733 0 00-1.055.017L5 3.981 1.845.727A.742.742 0 00.79.71L.71.79a.733.733 0 00.017 1.055L3.981 5 .727 8.155z" fill="#AEB3BC"/></g></svg><svg height="32" width="32" viewBox="-4 -4 32 32" id="comment_outline_24" y="132" xmlns="http://www.w3.org/2000/svg"><g fill="none" fill-rule="evenodd"><path d="M0 0h24v24H0z" opacity=".4"/><path d="M13.766 17.446a1.4 1.4 0 01.922-.346H18.5c1.003 0 1.6-.597 1.6-1.6v-8c0-1.003-.597-1.6-1.6-1.6h-12c-1.003 0-1.6.597-1.6 1.6v8c0 1.003.597 1.6 1.6 1.6h2.499c.7.202.7.202.901.901v2.829zm-4.931 5.086C8.363 22.178 8.1 21.554 8.1 21v-2.1H6.5c-1.997 0-3.4-1.403-3.4-3.4v-8c0-1.997 1.403-3.4 3.4-3.4h12c1.997 0 3.4 1.403 3.4 3.4v8c0 1.997-1.403 3.4-3.4 3.4h-3.662l-3.725 3.26c-.732.718-1.589.89-2.278.372z" fill="#99a2ad" fill-rule="nonzero"/></g></svg><svg height="32" width="32" viewBox="-4 -4 32 32" id="document-24" x="32" y="132" xmlns="http://www.w3.org/2000/svg"><g fill="none" fill-rule="evenodd"><path d="M0 0h24v24H0z" opacity=".4"/><path d="M4 5v13a3 3 0 003 3l11 .002A3 3 0 0021 18l-.01-9.172a2 2 0 00-.585-1.413l-4.83-4.83A2 2 0 0014.163 2H7a3 3 0 00-3 3zm10.012-.988l3.976 3.976a.3.3 0 01-.212.512H14a.5.5 0 01-.5-.5V4.224a.3.3 0 01.512-.212z" fill="#aaaeb3" fill-rule="nonzero"/></g></svg><svg height="32" width="32" viewBox="-4 -4 32 32" id="document_24" x="64" y="132" xmlns="http://www.w3.org/2000/svg"><g fill="none" fill-rule="evenodd"><path d="M0 0h24v24H0z" opacity=".4"/><path d="M7.846 2h5.295c.775 0 1.043.028 1.34.096.297.069.56.178.818.34.258.161.468.33 1.015.878l3.372 3.372c.547.547.717.757.879 1.015.161.258.27.521.339.818.068.297.096.565.096 1.34v7.295c0 1.337-.14 1.822-.4 2.311a2.726 2.726 0 01-1.135 1.134c-.489.262-.974.401-2.31.401h-9.31c-1.336 0-1.821-.14-2.31-.4A2.726 2.726 0 014.4 19.464c-.262-.489-.401-.974-.401-2.31V5.844c0-1.336.14-1.821.4-2.31A2.726 2.726 0 015.536 2.4c.488-.261.973-.4 2.309-.4zm6.166 2.012a.3.3 0 00-.512.212V8a.5.5 0 00.5.5h3.776a.3.3 0 00.212-.512z" fill="#99a2ad" fill-rule="nonzero"/></g></svg><svg width="48" height="48" viewBox="-4 -4 48 48" id="done_circle_40" xmlns="http://www.w3.org/2000/svg"><g fill="none" fill-rule="evenodd"><path d="M20 40C8.954 40 0 31.046 0 20S8.954 0 20 0s20 8.954 20 20-8.954 20-20 20zm0-2.5c9.665 0 17.5-7.835 17.5-17.5S29.665 2.5 20 2.5 2.5 10.335 2.5 20 10.335 37.5 20 37.5z" fill="#528BCC" fill-rule="nonzero"/><path opacity=".1" d="M8 8h24v24H8z"/><path stroke="#3f8ae0" stroke-width="2.5" stroke-linecap="round" stroke-linejoin="round" d="M12 20.5l5 5L27.5 15"/></g></svg><svg width="32" height="32" viewBox="-4 -4 32 32" id="down_circle_24" x="96" y="132" xmlns="http://www.w3.org/2000/svg"><g fill="none" fill-rule="evenodd"><path d="M0 0h24v24H0z"/><path stroke="#99A2AD" stroke-width="2.25" stroke-linecap="round" stroke-linejoin="round" d="M4.5 10l7.5 7 7.5-7"/></g></svg><svg width="20" height="17" viewBox="-4 -4 20 17" id="dropdown-12" y="228" xmlns="http://www.w3.org/2000/svg"><g fill="none" fill-rule="evenodd" opacity=".6"><path d="M0 0h12v9H0z"/><path d="M6 5.084l2.83-2.33a.563.563 0 01.715.868L6.358 6.247a.563.563 0 01-.716 0L2.455 3.622a.563.563 0 01.715-.869L6 5.083z" fill="#99A2AD" fill-rule="nonzero"/></g></svg><svg width="48" height="48" viewBox="-4 -4 48 48" id="error_circle_40" x="48" xmlns="http://www.w3.org/2000/svg"><defs><path d="M18.4 20.855V12.6a1.6 1.6 0 113.2 0v8.255a1.6 1.6 0 01-3.2 0zM18 27v-.09a2 2 0 014 0V27a2 2 0 01-4 0z" id="ana"/></defs><g fill="none" fill-rule="nonzero"><path d="M20 40C8.954 40 0 31.046 0 20S8.954 0 20 0s20 8.954 20 20-8.954 20-20 20zm0-2.5c9.665 0 17.5-7.835 17.5-17.5S29.665 2.5 20 2.5 2.5 10.335 2.5 20 10.335 37.5 20 37.5z" fill="#528BCC"/><use fill="#3f8ae0" xlink:href="#ana"/></g></svg><svg width="32" height="32" viewBox="-4 -4 32 32" id="error_fill_24" x="128" y="132" xmlns="http://www.w3.org/2000/svg"><defs><linearGradient x1="0%" y1="0%" y2="100%" id="aoa"><stop stop-color="#FF5263" offset="0%"/><stop stop-color="#FF3347" offset="100%"/></linearGradient></defs><g fill="none" fill-rule="evenodd"><circle fill="url(#aoa)" fill-rule="nonzero" cx="12" cy="12" r="12"/><path d="M3.5 3h18v18h-18z"/><path d="M19.213 10.751c.33.495.378 1.178.123 1.713l-1.722 3.616c-.977 2.052-3.482 3.634-5.758 3.634h-.642a5.142 5.142 0 01-5.143-5.148V9.51a1.765 1.765 0 012.25-1.698v-.47a1.768 1.768 0 012.296-1.691 1.767 1.767 0 013.488.308 1.767 1.767 0 012.252 1.704v2.74c.835-.821 2.158-.699 2.856.347zM7.839 9.031a.48.48 0 00-.482.48v5.055a3.856 3.856 0 003.857 3.863h.642c1.783 0 3.834-1.3 4.597-2.902l1.722-3.616a.506.506 0 00-.032-.446c-.275-.413-.722-.418-.996-.007l-1.4 2.1c-.37.556-.676.467-.676-.207V7.664a.481.481 0 00-.482-.485.48.48 0 00-.482.48v3.7a.642.642 0 01-.643.641.64.64 0 01-.643-.64V6.055a.482.482 0 10-.964 0v5.305c0 .347-.288.64-.643.64a.64.64 0 01-.643-.64V7.34a.482.482 0 00-.964.001v4.331a.648.648 0 01-.643.648.64.64 0 01-.643-.642V9.517a.483.483 0 00-.482-.485z" fill="#FFF" fill-rule="nonzero"/></g></svg><svg width="32" height="32" viewBox="-4 -4 32 32" id="favorite_24" x="164" xmlns="http://www.w3.org/2000/svg"><g fill="none" fill-rule="evenodd"><path d="M0 0h24v24H0z"/><path d="M15.343 8.485l4.43.425c1.541.148 2.014 1.653.824 2.643l-3.468 2.882 1.287 4.695c.423 1.542-.889 2.475-2.202 1.547L12 17.701l-4.214 2.976c-1.308.925-2.625-.005-2.202-1.547l1.287-4.695-3.468-2.882c-1.195-.994-.724-2.495.824-2.643l4.429-.425 1.95-4.499c.612-1.408 2.177-1.408 2.787 0l1.95 4.499z" fill="#71AAEB" fill-rule="nonzero"/></g></svg><svg width="36" height="36" viewBox="-4 -4 36 36" id="favorite_28" x="96" xmlns="http://www.w3.org/2000/svg"><defs><path d="M17.97 9.593l5.258.504c1.83.176 2.39 1.963.978 3.137l-4.116 3.42 1.528 5.573c.502 1.83-1.055 2.938-2.614 1.837l-5.002-3.533-5 3.533c-1.554 1.097-3.117-.006-2.615-1.837l1.528-5.572-4.116-3.421c-1.419-1.179-.86-2.96.977-3.137l5.257-.504 2.316-5.34c.725-1.671 2.582-1.67 3.307 0l2.315 5.34z" id="aqa"/></defs><g fill="none" fill-rule="evenodd"><path d="M0 0h28v28H0z"/><use fill="#3f8ae0" fill-rule="nonzero" xlink:href="#aqa"/></g></svg><svg width="32" height="32" viewBox="-4 -4 32 32" id="favorite_outline_24" x="164" y="32" xmlns="http://www.w3.org/2000/svg"><g fill="none" fill-rule="evenodd"><path d="M0 0h24v24H0z"/><path d="M12 16.461l5.172 3.16-1.406-5.896 4.603-3.943-6.042-.484L12 3.702 9.673 9.298l-6.042.484 4.603 3.943-1.406 5.895L12 16.461zm-4.313 4.744a1.761 1.761 0 01-2.631-1.912l1.172-4.916-3.838-3.288a1.761 1.761 0 011.005-3.093l5.038-.404 1.94-4.667a1.761 1.761 0 013.253 0l1.941 4.667 5.038.404a1.761 1.761 0 011.005 3.093l-3.838 3.288 1.172 4.916a1.761 1.761 0 01-2.631 1.912L12 18.57l-4.313 2.634z" fill="#99A2AD" fill-rule="nonzero"/></g></svg><svg width="36" height="36" viewBox="-4 -4 36 36" id="favorite_outline_28" x="96" y="36" xmlns="http://www.w3.org/2000/svg"><g fill="none" fill-rule="evenodd"><path d="M2 2h24v24H2z"/><path d="M14 19.178l5.69 3.476a.205.205 0 00.306-.223l-1.547-6.485 5.064-4.338a.205.205 0 00-.117-.36l-6.646-.533-2.56-6.156a.205.205 0 00-.38 0l-2.56 6.156-6.646.533a.205.205 0 00-.117.36l5.064 4.338-1.547 6.485a.205.205 0 00.306.223L14 19.178zm0 2.344L9.352 24.36a2.205 2.205 0 01-3.294-2.393l1.264-5.297-4.136-3.543a2.205 2.205 0 011.258-3.873l5.429-.435 2.091-5.028a2.205 2.205 0 014.072 0l2.091 5.028 5.429.435a2.205 2.205 0 011.258 3.873l-4.136 3.543 1.264 5.297a2.205 2.205 0 01-3.294 2.393L14 21.522z" fill="#3f8ae0" fill-rule="nonzero"/></g></svg><svg height="24" width="24" viewBox="-4 -4 24 24" id="like-16" x="228" y="180" xmlns="http://www.w3.org/2000/svg"><g fill="none" fill-rule="evenodd"><path d="M0 0h16v16H0z" opacity=".4"/><path d="M11.079 2.5A3.921 3.921 0 0115 6.421c0 2.187-.876 3.283-4.593 6.174l-1.69 1.315a1.167 1.167 0 01-1.433 0l-1.691-1.315C1.876 9.705 1 8.608 1 6.421A3.921 3.921 0 014.921 2.5c1.16 0 2.191.546 3.079 1.603C8.888 3.046 9.919 2.5 11.079 2.5z" fill="#ff3347" fill-rule="nonzero"/></g></svg><svg height="24" width="24" viewBox="-4 -4 24 24" id="like-outline-16" x="228" y="204" xmlns="http://www.w3.org/2000/svg"><g fill="none" fill-rule="evenodd"><path d="M0 0h16v16H0z" opacity=".4"/><path d="M10.96 2.5A4.04 4.04 0 0115 6.54c0 2.214-.884 3.32-4.52 6.149l-1.099.854a2.25 2.25 0 01-2.762 0L5.52 12.69C1.884 9.86 1 8.754 1 6.539A4.04 4.04 0 015.04 2.5c1.111 0 2.103.482 2.96 1.404.857-.922 1.849-1.404 2.96-1.404zM5.04 4A2.54 2.54 0 002.5 6.54c0 1.59.653 2.407 3.94 4.965l1.1.854c.27.21.65.21.92 0l1.1-.854c3.287-2.558 3.94-3.375 3.94-4.966A2.54 2.54 0 0010.96 4c-.848 0-1.618.482-2.343 1.53L8 6.423l-.617-.893C6.658 4.482 5.888 4 5.04 4z" fill="#aaaeb3" fill-rule="nonzero"/></g></svg><svg height="32" width="32" viewBox="-4 -4 32 32" id="like_24" x="164" y="64" xmlns="http://www.w3.org/2000/svg"><g fill="none" fill-rule="evenodd"><path d="M0 0h24v24H0z" opacity=".4"/><path d="M16.737 3.1A6.163 6.163 0 0122.9 9.263c0 3.42-1.368 5.131-7.116 9.602L13.166 20.9a1.9 1.9 0 01-2.332 0l-2.618-2.036C2.468 14.395 1.1 12.682 1.1 9.263A6.163 6.163 0 017.263 3.1C9.08 3.1 10.656 4.161 12 6.186 13.344 4.161 14.92 3.1 16.737 3.1z" fill="#ff3347" fill-rule="nonzero"/></g></svg><svg height="32" width="32" viewBox="-4 -4 32 32" id="like_outline_24" x="164" y="96" xmlns="http://www.w3.org/2000/svg"><g fill="none" fill-rule="evenodd"><path d="M0 0h24v24H0z" opacity=".4"/><path d="M16.737 3.1A6.163 6.163 0 0122.9 9.263c0 3.42-1.368 5.131-7.116 9.602L13.166 20.9a1.9 1.9 0 01-2.332 0l-2.618-2.036C2.468 14.395 1.1 12.682 1.1 9.263A6.163 6.163 0 017.263 3.1c1.783 0 3.37.818 4.737 2.395C13.367 3.918 14.954 3.1 16.737 3.1zM7.263 4.9A4.363 4.363 0 002.9 9.263c0 2.67 1.091 4.036 6.421 8.181l2.618 2.036a.1.1 0 00.122 0l2.618-2.036c5.33-4.145 6.421-5.511 6.421-8.18A4.363 4.363 0 0016.737 4.9c-1.466 0-2.785.826-3.997 2.578L12 8.548l-.74-1.07C10.048 5.726 8.729 4.9 7.263 4.9z" fill="#99a2ad" fill-rule="nonzero"/></g></svg><svg height="32" width="32" viewBox="-4 -4 32 32" id="list_24" x="164" y="128" xmlns="http://www.w3.org/2000/svg"><g fill="none" fill-rule="evenodd"><path d="M0 0h24v24H0z"/><path d="M4 10.5c-.83 0-1.5.67-1.5 1.5s.67 1.5 1.5 1.5 1.5-.67 1.5-1.5-.67-1.5-1.5-1.5zm0-6c-.83 0-1.5.67-1.5 1.5S3.17 7.5 4 7.5 5.5 6.83 5.5 6 4.83 4.5 4 4.5zm0 12a1.5 1.5 0 10-.001 2.999A1.5 1.5 0 004 16.5zM21 18a1 1 0 00-1-1H8a1 1 0 000 2h12a1 1 0 001-1zm0-6a1 1 0 00-1-1H8a1 1 0 000 2h12a1 1 0 001-1zM8 7h12a1 1 0 000-2H8a1 1 0 100 2z" fill="#99a2ad" fill-rule="nonzero"/></g></svg><svg height="32" width="32" viewBox="-4 -4 32 32" id="list_active_24" y="164" xmlns="http://www.w3.org/2000/svg"><g fill="none" fill-rule="evenodd"><path d="M0 0h24v24H0z"/><path d="M4 10.5c-.83 0-1.5.67-1.5 1.5s.67 1.5 1.5 1.5 1.5-.67 1.5-1.5-.67-1.5-1.5-1.5zm0-6c-.83 0-1.5.67-1.5 1.5S3.17 7.5 4 7.5 5.5 6.83 5.5 6 4.83 4.5 4 4.5zm0 12a1.5 1.5 0 10-.001 2.999A1.5 1.5 0 004 16.5zM21 18a1 1 0 00-1-1H8a1 1 0 000 2h12a1 1 0 001-1zm0-6a1 1 0 00-1-1H8a1 1 0 000 2h12a1 1 0 001-1zM8 7h12a1 1 0 000-2H8a1 1 0 100 2z" fill="#3f8ae0" fill-rule="nonzero"/></g></svg><svg width="48" height="48" viewBox="-4 -4 48 48" id="loading_40" y="48" xmlns="http://www.w3.org/2000/svg"><path d="M20 40a1.25 1.25 0 010-2.5c9.665 0 17.5-7.835 17.5-17.5S29.665 2.5 20 2.5 2.5 10.335 2.5 20c0 3.902 1.28 7.607 3.603 10.638A1.25 1.25 0 114.12 32.16 19.915 19.915 0 010 20C0 8.954 8.954 0 20 0s20 8.954 20 20-8.954 20-20 20z" fill="#3f8ae0"/></svg><svg width="32" height="32" viewBox="-4 -4 32 32" id="music-24" x="32" y="164" xmlns="http://www.w3.org/2000/svg"><g fill="none" fill-rule="evenodd"><path opacity=".4" d="M0 0h24v24H0z"/><path d="M19 10.033v4.453c0 3.471-1.236 4.219-3.28 4.494-1.063.143-2.72-.414-2.72-2.432 0-.986.821-1.965 1.846-2.167.95-.187-.308.058 1.842-.352.346-.066.317-.313.317-.58l-.002-3.416H17l.005-2.576c0-.237-.073-.348-.345-.28l-7.295 1.33C9.06 8.582 9 8.708 9 9v7.486c0 3.471-1.236 4.219-3.28 4.494-1.063.143-2.72-.414-2.72-2.432 0-.986.821-1.965 1.846-2.167.95-.187-.308.058 1.842-.352.346-.066.317-.313.317-.58l-.002-4.363h.001L7 8.55s-.004-1.574 0-2.36c.005-.942.51-1.288 2-1.594l8-1.478s2-.625 2 1v5.915z" fill="#AAAEB3" fill-rule="nonzero"/></g></svg><svg width="32" height="32" viewBox="-4 -4 32 32" id="music_24" x="64" y="164" xmlns="http://www.w3.org/2000/svg"><g fill="none" fill-rule="evenodd"><path opacity=".4" d="M0 0h24v24H0z"/><path d="M19 10.033v4.453c0 3.471-1.236 4.219-3.28 4.494-1.063.143-2.72-.414-2.72-2.432 0-.986.821-1.965 1.846-2.167.95-.187-.308.058 1.842-.352.346-.066.317-.313.317-.58l-.002-3.416H17l.005-2.576c0-.237-.073-.348-.345-.28l-7.295 1.33C9.06 8.582 9 8.708 9 9v7.486c0 3.471-1.236 4.219-3.28 4.494-1.063.143-2.72-.414-2.72-2.432 0-.986.821-1.965 1.846-2.167.95-.187-.308.058 1.842-.352.346-.066.317-.313.317-.58l-.002-4.363h.001L7 8.55s-.004-1.574 0-2.36c.005-.942.51-1.288 2-1.594l8-1.478s2-.625 2 1v5.915z" fill="#99A2AD" fill-rule="nonzero"/></g></svg><svg width="32" height="32" viewBox="-4 -4 32 32" id="newsfeed_24" x="96" y="164" xmlns="http://www.w3.org/2000/svg"><defs><path d="M17 2a4 4 0 014 4v12a4 4 0 01-4 4H7a4 4 0 01-4-4V6a4 4 0 014-4h10zm0 2H7a2 2 0 00-1.995 1.85L5 6v12a2 2 0 001.85 1.995L7 20h10a2 2 0 001.995-1.85L19 18V6a2 2 0 00-2-2zm-1 6a1 1 0 011 1v6a1 1 0 01-1 1H8a1 1 0 01-1-1v-6a1 1 0 011-1h8zm-4-4a1 1 0 010 2H8a1 1 0 110-2h4z" id="bca"/></defs><g fill="none" fill-rule="evenodd"><path d="M0 0h24v24H0z"/><use fill="#99A2AD" fill-rule="nonzero" xlink:href="#bca"/></g></svg><svg height="32" width="32" viewBox="-4 -4 32 32" id="newsfeed_active_24" x="128" y="164" xmlns="http://www.w3.org/2000/svg"><g fill="none" fill-rule="evenodd"><path d="M0 0h24v24H0z"/><path d="M17 2a4 4 0 014 4v12a4 4 0 01-4 4H7a4 4 0 01-4-4V6a4 4 0 014-4zm0 2H7a2 2 0 00-1.995 1.85L5 6v12a2 2 0 001.85 1.995L7 20h10a2 2 0 001.995-1.85L19 18V6a2 2 0 00-2-2zm-1 6a1 1 0 011 1v6a1 1 0 01-1 1H8a1 1 0 01-1-1v-6a1 1 0 011-1zm-4-4a1 1 0 010 2H8a1 1 0 110-2z" fill="#3f8ae0" fill-rule="nonzero"/></g></svg><svg height="32" width="32" viewBox="-4 -4 32 32" id="playlist_24" x="160" y="164" xmlns="http://www.w3.org/2000/svg"><g fill="none" fill-rule="evenodd"><path d="M0 0h24v24H0z"/><path d="M13 6.883A.88.88 0 0012.118 6H2.882A.888.888 0 002 6.883v.234A.88.88 0 002.882 8h9.236A.888.888 0 0013 7.117zm0 4a.88.88 0 00-.882-.883H2.882a.888.888 0 00-.882.883v.234a.88.88 0 00.882.883h9.236a.888.888 0 00.882-.883zM2 15.117v-.234A.89.89 0 012.885 14h4.227c.492 0 .885.395.885.883v.234a.89.89 0 01-.885.883H2.885A.882.882 0 012 15.117zm15.004.694c0 3.752-.993 4.654-3.776 5.142-1.48.259-3.223-.479-3.223-2.81 0-1.14.712-2.221 2.187-2.504 1.127-.216-.42.052 2.128-.42.618-.116.689-.337.689-.809 0-.236-.006-.428-.013-1.85V8.724s-.005-1.83 0-2.745c.006-1.094.833-1.496 2.596-1.852 0 0 2.35-.339 3.827-.607.327-.06.576.062.576.437V7.4c0 .37-.15.537-.524.603a228.49 228.49 0 01-3.986.649c-.333.081-.485.315-.485.652l.004 6.508z" fill="#99a2ad" fill-rule="nonzero"/></g></svg><svg height="32" width="32" viewBox="-4 -4 32 32" id="podcast_24" x="196" xmlns="http://www.w3.org/2000/svg"><g fill="none" fill-rule="evenodd"><path d="M0 0h24v24H0z"/><path d="M12 5c.92 0 1.783.249 2.524.683a5.025 5.025 0 011.793 1.793A4.98 4.98 0 0117 10v6a4.98 4.98 0 01-.683 2.524 5.025 5.025 0 01-1.793 1.793A4.968 4.968 0 0113 20.9v1.2a.9.9 0 01-.9.9h-.2a.9.9 0 01-.9-.9l-.001-1.2a4.968 4.968 0 01-1.523-.583 5.025 5.025 0 01-1.793-1.793A4.977 4.977 0 017 16v-6c0-.92.249-1.783.683-2.524a5.025 5.025 0 011.793-1.793A4.977 4.977 0 0112 5zm0 1.75c-.586 0-1.146.154-1.64.443A3.275 3.275 0 009.194 8.36 3.227 3.227 0 008.75 10h1.756c.21 0 .387.042.534.12a.818.818 0 01.34.34c.078.147.12.325.12.534v.012c0 .21-.042.387-.12.534a.818.818 0 01-.34.34c-.147.078-.325.12-.534.12H8.75v2h1.756c.21 0 .387.042.534.12a.818.818 0 01.34.34c.078.147.12.325.12.534v.012c0 .21-.042.387-.12.534a.818.818 0 01-.34.34c-.147.078-.325.12-.534.12H8.75l.007.219c.034.506.183.989.436 1.42.282.482.686.886 1.168 1.168A3.227 3.227 0 0012 19.25c.586 0 1.146-.154 1.64-.443a3.275 3.275 0 001.167-1.168 3.227 3.227 0 00.443-1.638L14.744 16c-.21 0-.387-.042-.534-.12a.818.818 0 01-.34-.34 1.117 1.117 0 01-.12-.534v-.012c0-.21.042-.387.12-.534a.818.818 0 01.34-.34c.147-.078.325-.12.534-.12h.506v-2.001l-.506.001c-.21 0-.387-.042-.534-.12a.818.818 0 01-.34-.34 1.117 1.117 0 01-.12-.534v-.012c0-.21.042-.387.12-.534a.818.818 0 01.34-.34c.147-.078.325-.12.534-.12l.506-.001-.007-.218a3.219 3.219 0 00-.436-1.42 3.275 3.275 0 00-1.168-1.168A3.227 3.227 0 0012 6.75zM12 .5a9.5 9.5 0 019.478 8.851c.27.204.48.484.598.818.283.802.424 1.746.424 2.831s-.141 2.029-.424 2.831A1.75 1.75 0 0120.426 17H20a1.5 1.5 0 01-1.5-1.5v-5a1.5 1.5 0 011.19-1.468 7.752 7.752 0 00-15.38.002c.68.14 1.19.744 1.19 1.466v5A1.5 1.5 0 014 17h-.426a1.75 1.75 0 01-1.65-1.169C1.64 15.03 1.5 14.085 1.5 13s.141-2.029.424-2.831a1.75 1.75 0 01.598-.817C2.855 4.407 6.972.5 12 .5z" fill="#99a2ad" fill-rule="nonzero"/></g></svg><svg height="32" width="32" viewBox="-4 -4 32 32" id="podcast_active_24" x="196" y="32" xmlns="http://www.w3.org/2000/svg"><g fill="none" fill-rule="evenodd"><path d="M0 0h24v24H0z"/><path d="M12 5c.92 0 1.783.249 2.524.683a5.025 5.025 0 011.793 1.793A4.98 4.98 0 0117 10v6a4.98 4.98 0 01-.683 2.524 5.025 5.025 0 01-1.793 1.793A4.968 4.968 0 0113 20.9v1.2a.9.9 0 01-.9.9h-.2a.9.9 0 01-.9-.9l-.001-1.2a4.968 4.968 0 01-1.523-.583 5.025 5.025 0 01-1.793-1.793A4.977 4.977 0 017 16v-6c0-.92.249-1.783.683-2.524a5.025 5.025 0 011.793-1.793A4.977 4.977 0 0112 5zm0 1.75c-.586 0-1.146.154-1.64.443A3.275 3.275 0 009.194 8.36 3.227 3.227 0 008.75 10h1.756c.21 0 .387.042.534.12a.818.818 0 01.34.34c.078.147.12.325.12.534v.012c0 .21-.042.387-.12.534a.818.818 0 01-.34.34c-.147.078-.325.12-.534.12H8.75v2h1.756c.21 0 .387.042.534.12a.818.818 0 01.34.34c.078.147.12.325.12.534v.012c0 .21-.042.387-.12.534a.818.818 0 01-.34.34c-.147.078-.325.12-.534.12H8.75l.007.219c.034.506.183.989.436 1.42.282.482.686.886 1.168 1.168A3.227 3.227 0 0012 19.25c.586 0 1.146-.154 1.64-.443a3.275 3.275 0 001.167-1.168 3.227 3.227 0 00.443-1.638L14.744 16c-.21 0-.387-.042-.534-.12a.818.818 0 01-.34-.34 1.117 1.117 0 01-.12-.534v-.012c0-.21.042-.387.12-.534a.818.818 0 01.34-.34c.147-.078.325-.12.534-.12h.506v-2.001l-.506.001c-.21 0-.387-.042-.534-.12a.818.818 0 01-.34-.34 1.117 1.117 0 01-.12-.534v-.012c0-.21.042-.387.12-.534a.818.818 0 01.34-.34c.147-.078.325-.12.534-.12l.506-.001-.007-.218a3.219 3.219 0 00-.436-1.42 3.275 3.275 0 00-1.168-1.168A3.227 3.227 0 0012 6.75zM12 .5a9.5 9.5 0 019.478 8.851c.27.204.48.484.598.818.283.802.424 1.746.424 2.831s-.141 2.029-.424 2.831A1.75 1.75 0 0120.426 17H20a1.5 1.5 0 01-1.5-1.5v-5a1.5 1.5 0 011.19-1.468 7.752 7.752 0 00-15.38.002c.68.14 1.19.744 1.19 1.466v5A1.5 1.5 0 014 17h-.426a1.75 1.75 0 01-1.65-1.169C1.64 15.03 1.5 14.085 1.5 13s.141-2.029.424-2.831a1.75 1.75 0 01.598-.817C2.855 4.407 6.972.5 12 .5z" fill="#3f8ae0" fill-rule="nonzero"/></g></svg><svg height="44" width="44" viewBox="-4 -4 44 44" id="posting_close_36" x="48" y="48" xmlns="http://www.w3.org/2000/svg"><defs><filter id="bha" height="150%" width="140%" x="-20%" y="-20%"><feOffset dy="2" in="SourceAlpha" result="shadowOffsetOuter1"/><feGaussianBlur in="shadowOffsetOuter1" result="shadowBlurOuter1" stdDeviation="1"/><feComposite in="shadowBlurOuter1" in2="SourceAlpha" operator="out" result="shadowBlurOuter1"/><feColorMatrix in="shadowBlurOuter1" result="shadowMatrixOuter1" values="0 0 0 0 0 0 0 0 0 0 0 0 0 0 0 0 0 0 0.06 0"/><feOffset in="SourceAlpha" result="shadowOffsetOuter2"/><feGaussianBlur in="shadowOffsetOuter2" result="shadowBlurOuter2" stdDeviation="1"/><feComposite in="shadowBlurOuter2" in2="SourceAlpha" operator="out" result="shadowBlurOuter2"/><feColorMatrix in="shadowBlurOuter2" result="shadowMatrixOuter2" values="0 0 0 0 0 0 0 0 0 0 0 0 0 0 0 0 0 0 0.03 0"/><feMerge><feMergeNode in="shadowMatrixOuter1"/><feMergeNode in="shadowMatrixOuter2"/></feMerge></filter><path id="bhb" d="M0 10c0 5.52 4.48 10 10 10s10-4.48 10-10S15.52 0 10 0 0 4.48 0 10z"/></defs><g fill="none" fill-rule="evenodd"><path d="M0 0h36v36H0z" opacity=".4"/><g transform="translate(8 8)"><use fill="#000" filter="url(#bha)" xlink:href="#bhb"/><use fill="#fff" fill-opacity=".95" xlink:href="#bhb"/></g><path d="M12 12h12v12H12z"/><g stroke="#909499" stroke-linecap="round" stroke-linejoin="round" stroke-width="1.5"><path d="M15 15l6 6M21 15l-6 6"/></g></g></svg><svg width="36" height="36" viewBox="-4 -4 36 36" id="repost_outline_28" y="96" xmlns="http://www.w3.org/2000/svg"><g fill="none"><path d="M0 0h28v28H0z"/><path d="M18.199 10H12.5a5.5 5.5 0 000 11H17a1 1 0 010 2h-4.5a7.5 7.5 0 010-15h5.699l-3.332-2.726a1 1 0 111.266-1.548l5.5 4.5a1 1 0 010 1.548l-5.5 4.5a1 1 0 11-1.266-1.548L18.199 10z" fill="#3f8ae0"/></g></svg><svg width="32" height="32" viewBox="-4 -4 32 32" id="search_24" x="196" y="64" xmlns="http://www.w3.org/2000/svg"><defs><path d="M16.535 15.12l4.172 4.173a1 1 0 01-1.414 1.414l-4.172-4.172a7.25 7.25 0 111.414-1.414zM10.75 16a5.25 5.25 0 100-10.5 5.25 5.25 0 000 10.5z" id="bja"/></defs><g fill="none" fill-rule="evenodd"><path opacity=".1" d="M0 0h24v24H0z"/><use fill="#3f8ae0" fill-rule="nonzero" xlink:href="#bja"/></g></svg><svg height="24" width="24" viewBox="-4 -4 24 24" id="search_outline_16" x="96" y="72" xmlns="http://www.w3.org/2000/svg"><g fill="none" fill-rule="evenodd" opacity=".92"><path d="M0 0h16v16H0z" opacity=".1"/><path d="M9.823 10.884a5.5 5.5 0 111.06-1.06l3.896 3.9a.75.75 0 01-1.061 1.06zM6.5 10.5a4 4 0 100-8 4 4 0 000 8z" fill="#818c99" fill-rule="nonzero"/></g></svg><svg height="32" width="32" viewBox="-4 -4 32 32" id="search_outline_24" x="196" y="96" xmlns="http://www.w3.org/2000/svg"><g fill="none" fill-rule="evenodd"><path d="M0 0h24v24H0z"/><path d="M10.75 3.5a7.25 7.25 0 015.785 11.62l4.172 4.173a1 1 0 01-1.414 1.414l-4.173-4.172A7.25 7.25 0 1110.75 3.5zm0 2a5.25 5.25 0 100 10.5 5.25 5.25 0 000-10.5z" fill="#99a2ad" fill-rule="nonzero"/></g></svg><svg height="32" width="32" viewBox="-4 -4 32 32" id="search_outline_active_24" x="196" y="128" xmlns="http://www.w3.org/2000/svg"><g fill="none" fill-rule="evenodd"><path d="M0 0h24v24H0z"/><path d="M10.75 3.5a7.25 7.25 0 015.785 11.62l4.172 4.173a1 1 0 01-1.414 1.414l-4.173-4.172A7.25 7.25 0 1110.75 3.5zm0 2a5.25 5.25 0 100 10.5 5.25 5.25 0 000-10.5z" fill="#3f8ae0" fill-rule="nonzero"/></g></svg><svg viewBox="-4 -4 32 32" width="32" height="32" id="send_24" x="196" y="160" xmlns="http://www.w3.org/2000/svg"><g fill="none" fill-rule="evenodd"><path d="M0 0h24v24H0z"/><path d="M5.739 15.754c-.686 1.855-1.117 3.158-1.293 3.91-.553 2.362-.956 2.894 1.107 1.771 2.062-1.122 12.046-6.683 14.274-7.919 2.904-1.611 2.942-1.485-.156-3.196-2.36-1.302-12.227-6.718-14.118-7.782-1.892-1.063-1.66-.59-1.107 1.772.178.761.616 2.076 1.311 3.944a4 4 0 002.988 2.531l5.765 1.117a.1.1 0 010 .196l-5.778 1.116a4 4 0 00-2.993 2.54z" fill="#aaaeb3"/></g></svg><svg viewBox="-4 -4 32 32" width="32" height="32" id="send_active_24" y="196" xmlns="http://www.w3.org/2000/svg"><g fill="none" fill-rule="evenodd"><path d="M0 0h24v24H0z"/><path d="M5.739 15.754c-.686 1.855-1.117 3.158-1.293 3.91-.553 2.362-.956 2.894 1.107 1.771 2.062-1.122 12.046-6.683 14.274-7.919 2.904-1.611 2.942-1.485-.156-3.196-2.36-1.302-12.227-6.718-14.118-7.782-1.892-1.063-1.66-.59-1.107 1.772.178.761.616 2.076 1.311 3.944a4 4 0 002.988 2.531l5.765 1.117a.1.1 0 010 .196l-5.778 1.116a4 4 0 00-2.993 2.54z" fill="#3f8ae0"/></g></svg><svg height="32" width="32" viewBox="-4 -4 32 32" id="share_external_android_24" x="32" y="196" xmlns="http://www.w3.org/2000/svg"><g fill="none" fill-rule="evenodd"><path d="M0 0h24v24H0z" opacity=".4"/><path d="M17 16.08c-.76 0-1.44.3-1.96.77L7.91 12.7c.05-.23.09-.46.09-.7s-.04-.47-.09-.7l7.05-4.11c.54.5 1.25.81 2.04.81 1.66 0 3-1.34 3-3s-1.34-3-3-3-3 1.34-3 3c0 .24.04.47.09.7L7.04 9.81C6.5 9.31 5.79 9 5 9c-1.66 0-3 1.34-3 3s1.34 3 3 3c.79 0 1.5-.31 2.04-.81l7.12 4.16c-.05.21-.08.43-.08.65 0 1.61 1.31 2.92 2.92 2.92s2.92-1.31 2.92-2.92-1.31-2.92-2.92-2.92z" fill="#3f8ae0" fill-rule="nonzero"/></g></svg><svg width="32" height="32" viewBox="-4 -4 32 32" id="share_external_ios_24" x="64" y="196" xmlns="http://www.w3.org/2000/svg"><defs><path d="M13 5.414V14.5a1 1 0 01-2 0V5.414L8.207 8.207a1 1 0 01-1.414-1.414l4.5-4.5a1 1 0 011.414 0l4.5 4.5a1 1 0 11-1.414 1.414L13 5.414zM4 14a1 1 0 012 0v4a1 1 0 001 1h10a1 1 0 001-1v-4a1 1 0 012 0v4a3 3 0 01-3 3H7a3 3 0 01-3-3v-4z" id="bqa"/></defs><g fill="none" fill-rule="evenodd"><path d="M0 0h24v24H0z"/><use fill="#3f8ae0" fill-rule="nonzero" xlink:href="#bqa"/></g></svg><svg height="32" width="32" viewBox="-4 -4 32 32" id="share_outline_24" x="96" y="196" xmlns="http://www.w3.org/2000/svg"><g fill="none" fill-rule="evenodd"><path d="M0 0h24v24H0z"/><path d="M.322 18.25C1.848 11.688 5.832 8.174 12.1 7.87V4.402a1.317 1.317 0 012.17-1.004l8.939 7.598a1.317 1.317 0 010 2.008l-8.939 7.598a1.317 1.317 0 01-2.17-1.004V16.16c-4.647.12-7.916 1.19-9.836 3.153A1.15 1.15 0 01.322 18.25zM13 9.65c-5.262 0-8.669 2.308-10.358 7.055C5.096 15.124 8.555 14.35 13 14.35h.9v4.204L21.61 12 13.9 5.446V9.65z" fill="#99a2ad" fill-rule="nonzero"/></g></svg><svg width="32" height="32" viewBox="-4 -4 32 32" id="smile_24" x="128" y="196" xmlns="http://www.w3.org/2000/svg"><g fill="none" fill-rule="evenodd"><path opacity=".4" d="M0 0h24v24H0z"/><path d="M1 12C1 5.925 5.925 1 12 1s11 4.925 11 11-4.925 11-11 11S1 18.075 1 12zm20.2 0a9.2 9.2 0 10-18.4 0 9.2 9.2 0 0018.4 0zm-12.7-.5a1.5 1.5 0 110-3 1.5 1.5 0 010 3zm7 0a1.5 1.5 0 110-3 1.5 1.5 0 010 3zm-8.304 3.927A.9.9 0 018.66 14.38a4.1 4.1 0 006.68 0 .9.9 0 111.465 1.046 5.9 5.9 0 01-9.609.001z" fill="#AAAEB3" fill-rule="nonzero"/></g></svg><svg height="32" width="32" viewBox="-4 -4 32 32" id="story_24" x="160" y="196" xmlns="http://www.w3.org/2000/svg"><g fill="none" fill-rule="evenodd"><path d="M0 0h24v24H0z" opacity=".4"/><path d="M8.128 3h7.744c1.783 0 2.43.186 3.082.534.652.349 1.163.86 1.512 1.512.348.652.534 1.299.534 3.082v7.744c0 1.783-.186 2.43-.534 3.082a3.635 3.635 0 01-1.512 1.512c-.652.348-1.299.534-3.082.534H8.128c-1.783 0-2.43-.186-3.082-.534a3.635 3.635 0 01-1.512-1.512C3.186 18.302 3 17.655 3 15.872V8.128c0-1.783.186-2.43.534-3.082a3.635 3.635 0 011.512-1.512C5.698 3.186 6.345 3 8.128 3zm-1.125 9.003c0 2.76 2.24 5 5 5s5-2.24 5-5-2.24-5-5-5-5 2.24-5 5zM8.8 12a3.2 3.2 0 116.4 0 3.2 3.2 0 01-6.4 0z" fill="#99a2ad" fill-rule="nonzero"/></g></svg><svg height="22" width="22" viewBox="-4 -4 22 22" id="top_author_14" x="104" y="96" xmlns="http://www.w3.org/2000/svg"><g fill="none" fill-rule="evenodd"><path d="M0 0h14v14H0z"/><path d="M6.525.043c-.19.141-.345.254-.463.338-3.156 2.252-4.299 5.437-4.312 7.7C1.75 11.07 4 13.125 7 13.125s5.213-2.055 5.25-5.044c.01-.834-.062-2.772-1.919-5.087-.522-.65-.97-1.1-1.344-1.346a.201.201 0 00-.31.189l.077.725C8.934 4.228 8.092 5 6.939 4.83 5.826 4.665 5.1 3.132 6.752.58a.992.992 0 00.116-.314.219.219 0 00-.343-.224z" fill="#f05c44" fill-rule="nonzero"/></g></svg><svg height="28" width="28" viewBox="-4 -4 28 28" id="top_author_20" x="228" y="128" xmlns="http://www.w3.org/2000/svg"><g fill="none" fill-rule="evenodd"><path d="M0 0h20v20H0z"/><path d="M9.32.061c-.27.202-.491.363-.66.483-4.508 3.217-6.141 7.767-6.16 11 0 4.27 3.214 7.206 7.5 7.206s7.446-2.936 7.5-7.206c.015-1.19-.089-3.96-2.741-7.267-.745-.93-1.386-1.57-1.92-1.923a.287.287 0 00-.445.27l.112 1.036c.257 2.38-.947 3.483-2.592 3.24-1.592-.236-2.628-2.426-.268-6.07.066-.102.122-.252.166-.449a.313.313 0 00-.491-.32z" fill="#f05c44" fill-rule="nonzero"/></g></svg><svg height="32" width="32" viewBox="-4 -4 32 32" id="updates_outline_24" x="192" y="196" xmlns="http://www.w3.org/2000/svg"><g fill="none" fill-rule="evenodd"><path d="M0 0h24v24H0z" opacity=".4"/><path d="M12 2a9.985 9.985 0 018 4V4a1 1 0 012 0v4a1 1 0 01-1 1h-4a1 1 0 010-2h1.245A8 8 0 1020 12h2c0 5.523-4.477 10-10 10S2 17.523 2 12 6.477 2 12 2zm0 5c.478 0 .93.388.993.884L13 8v4l3.367 1.062c.487.176.749.74.584 1.262-.154.483-.62.758-1.077.654l-.105-.03-4.136-1.497c-.34-.123-.58-.45-.625-.824L11 12.5V8c0-.55.485-1 1-1z" fill="#99a2ad"/></g></svg><svg height="32" width="32" viewBox="-4 -4 32 32" id="updates_outline_active_24" x="228" xmlns="http://www.w3.org/2000/svg"><g fill="none" fill-rule="evenodd"><path d="M0 0h24v24H0z" opacity=".4"/><path d="M12 2a9.985 9.985 0 018 4V4a1 1 0 012 0v4a1 1 0 01-1 1h-4a1 1 0 010-2h1.245A8 8 0 1020 12h2c0 5.523-4.477 10-10 10S2 17.523 2 12 6.477 2 12 2zm0 5c.478 0 .93.388.993.884L13 8v4l3.367 1.062c.487.176.749.74.584 1.262-.154.483-.62.758-1.077.654l-.105-.03-4.136-1.497c-.34-.123-.58-.45-.625-.824L11 12.5V8c0-.55.485-1 1-1z" fill="#3f8ae0"/></g></svg><svg width="36" height="36" viewBox="-4 -4 36 36" id="users_outline_28" x="36" y="96" xmlns="http://www.w3.org/2000/svg"><path d="M17.97 21.2h7.344c.384 0 .286.107.286-.644 0-1.854-2.646-2.961-5.82-2.961-.876 0-1.711.084-2.462.245a5.78 5.78 0 00-1.28-1.552c1.12-.332 2.402-.493 3.742-.493 4.073 0 7.62 1.485 7.62 4.76 0 1.71-.669 2.445-2.086 2.445h-7.858c.274-.505.449-1.109.514-1.8zm4.55-11.462c0-1.574-1.231-2.838-2.74-2.838-1.509 0-2.74 1.264-2.74 2.837 0 1.574 1.231 2.838 2.74 2.838 1.509 0 2.74-1.264 2.74-2.837zm1.8 0c0 2.556-2.026 4.637-4.54 4.637-2.514 0-4.54-2.08-4.54-4.638 0-2.556 2.026-4.637 4.54-4.637 2.514 0 4.54 2.08 4.54 4.638zm-13 0c0-1.574-1.231-2.838-2.74-2.838-1.509 0-2.74 1.264-2.74 2.837 0 1.574 1.231 2.838 2.74 2.838 1.509 0 2.74-1.264 2.74-2.837zm1.8 0c0 2.556-2.026 4.637-4.54 4.637-2.514 0-4.54-2.08-4.54-4.638C4.04 7.182 6.066 5.1 8.58 5.1c2.514 0 4.54 2.08 4.54 4.638zM2.76 20.556c0 .751-.098.644.286.644h11.068c.384 0 .286.107.286-.644 0-1.854-2.646-2.961-5.82-2.961-3.174 0-5.82 1.107-5.82 2.96zm-1.8 0c0-3.276 3.547-4.761 7.62-4.761s7.62 1.485 7.62 4.76c0 1.71-.669 2.445-2.086 2.445H3.046C1.629 23 .96 22.265.96 20.556z" fill="#3f8ae0" fill-rule="nonzero"/></svg><svg height="32" width="32" viewBox="-4 -4 32 32" id="video-24" x="228" y="32" xmlns="http://www.w3.org/2000/svg"><g fill="none" fill-rule="evenodd"><path d="M0 0h24v24H0z" opacity=".4"/><path d="M6 3h11a3 3 0 013 3v12.5a3 3 0 01-3 3H6a3 3 0 01-3-3V6a3 3 0 013-3zm.75 3a.75.75 0 00-.75.75v1c0 .414.336.75.75.75h1a.75.75 0 00.75-.75v-1A.75.75 0 007.75 6zm8.5 0a.75.75 0 00-.75.75v1c0 .414.336.75.75.75h1a.75.75 0 00.75-.75v-1a.75.75 0 00-.75-.75zm-8.5 10a.75.75 0 00-.75.75v1c0 .414.336.75.75.75h1a.75.75 0 00.75-.75v-1a.75.75 0 00-.75-.75zm8.5 0a.75.75 0 00-.75.75v1c0 .414.336.75.75.75h1a.75.75 0 00.75-.75v-1a.75.75 0 00-.75-.75zm-8.5-5a.75.75 0 00-.75.75v1c0 .414.336.75.75.75h1a.75.75 0 00.75-.75v-1a.75.75 0 00-.75-.75zm8.5 0a.75.75 0 00-.75.75v1c0 .414.336.75.75.75h1a.75.75 0 00.75-.75v-1a.75.75 0 00-.75-.75z" fill="#aaaeb3" fill-rule="nonzero"/></g></svg><svg height="32" width="32" viewBox="-4 -4 32 32" id="video_24" x="228" y="64" xmlns="http://www.w3.org/2000/svg"><g fill="none" fill-rule="evenodd"><path d="M0 0h24v24H0z" opacity=".4"/><path d="M6.846 3h9.308c1.337 0 1.822.14 2.311.4.49.262.873.646 1.134 1.135.262.489.401.974.401 2.31v10.81c0 1.336-.14 1.821-.4 2.31a2.726 2.726 0 01-1.135 1.134c-.489.262-.974.401-2.31.401h-9.31c-1.336 0-1.821-.14-2.31-.4A2.726 2.726 0 013.4 19.964c-.262-.489-.401-.974-.401-2.31V6.844c0-1.336.14-1.821.4-2.31A2.726 2.726 0 014.536 3.4c.488-.261.973-.4 2.309-.4zM6.75 6a.75.75 0 00-.75.75v1c0 .414.336.75.75.75h1a.75.75 0 00.75-.75v-1A.75.75 0 007.75 6zm8.5 0a.75.75 0 00-.75.75v1c0 .414.336.75.75.75h1a.75.75 0 00.75-.75v-1a.75.75 0 00-.75-.75zm-8.5 10a.75.75 0 00-.75.75v1c0 .414.336.75.75.75h1a.75.75 0 00.75-.75v-1a.75.75 0 00-.75-.75zm8.5 0a.75.75 0 00-.75.75v1c0 .414.336.75.75.75h1a.75.75 0 00.75-.75v-1a.75.75 0 00-.75-.75zm-8.5-5a.75.75 0 00-.75.75v1c0 .414.336.75.75.75h1a.75.75 0 00.75-.75v-1a.75.75 0 00-.75-.75zm8.5 0a.75.75 0 00-.75.75v1c0 .414.336.75.75.75h1a.75.75 0 00.75-.75v-1a.75.75 0 00-.75-.75z" fill="#99a2ad" fill-rule="nonzero"/></g></svg><svg height="32" width="32" viewBox="-4 -4 32 32" id="view_24" x="228" y="96" xmlns="http://www.w3.org/2000/svg"><g fill="none" fill-rule="evenodd"><path d="M0 0h24v24H0z"/><path d="M2 2h20v20H2z" opacity=".4"/><path d="M12 17c-4.2 0-7-4-7-5s2.8-5 7-5 7 4 7 5-2.8 5-7 5zm0-1.5a3.5 3.5 0 100-7 3.5 3.5 0 000 7zm0-2a1.5 1.5 0 110-3 1.5 1.5 0 010 3z" fill="#c0c5cc"/></g></svg></svg>